fontCallback.success({"glyphs":{"S":{"x_min":16.703125,"x_max":777.453125,"ha":836,"o":"m 777 978 l 751 839 q 637 899 696 879 q 515 920 578 920 q 332 864 403 920 q 262 722 262 808 q 295 644 262 674 q 416 587 328 614 l 498 560 q 659 470 608 526 q 711 326 711 413 q 598 73 711 166 q 291 -20 485 -20 q 152 -4 220 -20 q 16 40 84 10 l 44 182 q 179 113 110 135 q 323 91 247 91 q 505 150 435 91 q 575 302 575 210 q 545 388 575 357 q 424 446 515 418 l 356 469 q 181 558 231 508 q 132 690 132 608 q 243 935 132 840 q 536 1031 355 1031 q 651 1017 590 1031 q 777 978 713 1003 "},"Â¦":{"x_min":359,"x_max":476,"ha":836,"o":"m 476 972 l 476 458 l 359 458 l 359 972 l 476 972 m 476 277 l 476 -237 l 359 -237 l 359 277 l 476 277 "},"/":{"x_min":10.84375,"x_max":718.1875,"ha":836,"o":"m 10 -129 l 588 1013 l 718 1013 l 139 -129 l 10 -129 "},"y":{"x_min":-26.453125,"x_max":830.75,"ha":836,"o":"m 533 244 q 421 48 491 171 q 279 -187 316 -138 q 189 -264 240 -239 q 73 -289 139 -289 l -26 -289 l -6 -185 l 66 -185 q 161 -153 121 -185 q 241 -45 200 -121 l 270 11 l 123 759 l 247 759 l 364 174 l 691 760 l 830 760 l 533 244 "},"â‰ˆ":{"x_min":60,"x_max":777,"ha":836,"o":"m 777 654 l 777 534 q 677 475 726 494 q 575 457 629 457 q 437 491 514 457 q 415 501 422 498 q 328 532 363 524 q 258 541 293 541 q 157 520 205 541 q 60 457 109 500 l 60 575 q 162 635 112 616 q 268 654 211 654 q 338 646 304 654 q 422 617 372 638 q 444 606 429 614 q 586 570 523 570 q 680 590 633 570 q 777 654 726 610 m 777 405 l 777 285 q 677 226 726 245 q 575 207 629 207 q 437 241 514 207 q 415 251 422 248 q 325 284 359 276 q 258 292 291 292 q 158 271 205 292 q 60 207 110 251 l 60 325 q 163 386 113 367 q 268 405 212 405 q 421 367 333 405 l 422 367 q 444 356 429 363 q 586 320 523 320 q 679 340 632 320 q 777 405 726 361 "},"Ã�":{"x_min":-71.890625,"x_max":741.234375,"ha":836,"o":"m 498 899 l 251 374 l 543 374 l 498 899 m 433 1012 l 600 1012 l 712 0 l 576 0 l 552 264 l 200 264 l 75 0 l -71 0 l 433 1012 m 600 1288 l 741 1288 l 533 1109 l 424 1109 l 600 1288 "},"g":{"x_min":39.84375,"x_max":776.78125,"ha":836,"o":"m 347 99 q 445 129 400 99 q 522 217 491 160 q 574 354 555 278 q 593 502 593 430 q 554 627 593 582 q 448 673 516 673 q 272 558 344 673 q 201 271 201 444 q 239 144 201 190 q 347 99 278 99 m 639 49 q 512 -216 603 -134 q 254 -298 421 -298 q 144 -288 198 -298 q 39 -260 90 -278 l 64 -137 q 167 -182 114 -166 q 275 -198 220 -198 q 432 -143 376 -198 q 512 36 487 -89 l 529 115 q 430 25 489 56 q 297 -5 371 -5 q 130 67 192 -5 q 69 265 69 140 q 96 453 69 360 q 171 618 123 546 q 292 736 222 694 q 438 778 363 778 q 559 745 507 778 q 633 655 610 712 l 652 757 l 776 757 l 639 49 "},"Â²":{"x_min":207.828125,"x_max":672,"ha":836,"o":"m 333 530 l 601 530 l 585 453 l 207 453 l 222 527 l 337 622 l 359 640 q 572 883 572 812 q 546 939 572 918 q 479 960 521 960 q 403 947 444 960 q 305 907 361 934 l 321 993 q 421 1021 378 1012 q 499 1031 463 1031 q 625 993 579 1031 q 672 891 672 955 q 462 632 672 797 l 448 622 l 333 530 "},"â€“":{"x_min":-34.59375,"x_max":820.578125,"ha":836,"o":"m -15 430 l 820 430 l 801 334 l -34 334 l -15 430 "},"Ã«":{"x_min":66,"x_max":763,"ha":836,"o":"m 635 447 q 640 477 639 465 q 642 499 642 489 q 597 626 642 581 q 475 672 553 672 q 323 611 392 672 q 224 447 254 550 l 635 447 m 650 38 q 511 -5 579 9 q 374 -20 444 -20 q 144 55 223 -20 q 66 276 66 131 q 106 483 66 382 q 219 659 147 585 q 343 748 275 717 q 485 779 411 779 q 687 701 611 779 q 763 494 763 623 q 759 437 763 471 q 748 350 756 402 l 201 350 q 195 310 197 328 q 193 279 193 292 q 245 135 193 184 q 396 85 297 85 q 527 105 456 85 q 675 162 597 124 l 650 38 m 321 1052 l 459 1052 l 432 915 l 295 915 l 321 1052 m 586 1052 l 724 1052 l 697 915 l 560 915 l 586 1052 "},"Æ’":{"x_min":0,"x_max":814,"ha":836,"o":"m 814 1030 l 814 919 q 761 948 789 938 q 704 958 734 958 q 596 915 635 958 q 544 785 557 873 l 514 575 l 720 575 l 720 478 l 497 478 l 429 47 q 332 -211 400 -133 q 139 -289 265 -289 q 65 -281 100 -289 q 0 -259 31 -274 l 0 -148 q 67 -180 33 -169 q 133 -192 101 -192 q 239 -141 198 -192 q 298 12 280 -90 l 378 478 l 207 478 l 207 575 l 393 575 l 426 798 q 511 986 444 918 q 679 1055 578 1055 q 745 1048 712 1055 q 814 1030 779 1042 "},"ÃŽ":{"x_min":38.65625,"x_max":797.53125,"ha":836,"o":"m 234 1013 l 797 1013 l 775 898 l 562 898 l 410 115 l 623 115 l 601 0 l 38 0 l 61 115 l 273 115 l 425 898 l 212 898 l 234 1013 m 481 1289 l 625 1289 l 733 1109 l 642 1109 l 548 1229 l 406 1109 l 303 1109 l 481 1289 "},"e":{"x_min":66,"x_max":763,"ha":836,"o":"m 635 447 q 640 477 639 465 q 642 499 642 489 q 597 626 642 581 q 475 672 553 672 q 323 611 392 672 q 224 447 254 550 l 635 447 m 650 38 q 511 -5 579 9 q 374 -20 444 -20 q 144 55 223 -20 q 66 276 66 131 q 106 483 66 382 q 219 659 147 585 q 343 748 275 717 q 485 779 411 779 q 687 701 611 779 q 763 494 763 623 q 759 437 763 471 q 748 350 756 402 l 201 350 q 195 310 197 328 q 193 279 193 292 q 245 135 193 184 q 396 85 297 85 q 527 105 456 85 q 675 162 597 124 l 650 38 "},"Ãƒ":{"x_min":-71.890625,"x_max":784.640625,"ha":836,"o":"m 498 899 l 251 374 l 543 374 l 498 899 m 433 1012 l 600 1012 l 712 0 l 576 0 l 552 264 l 200 264 l 75 0 l -71 0 l 433 1012 m 535 1159 l 512 1176 l 511 1177 q 457 1199 482 1199 q 415 1181 434 1199 q 384 1131 397 1164 l 299 1131 q 365 1241 323 1204 q 465 1279 407 1279 q 509 1271 488 1279 q 554 1247 530 1264 l 577 1230 q 602 1216 590 1220 q 627 1212 614 1212 q 673 1230 654 1212 q 699 1279 692 1248 l 784 1279 q 720 1168 762 1205 q 615 1131 677 1131 q 575 1138 594 1131 q 535 1159 556 1145 "},"J":{"x_min":-16.953125,"x_max":747.34375,"ha":836,"o":"m -16 40 l 13 200 q 124 119 62 147 q 257 91 187 91 q 401 140 353 91 q 476 329 448 190 l 587 897 l 328 897 l 351 1012 l 747 1012 l 613 329 q 494 56 575 133 q 251 -20 413 -20 q 118 -4 185 -20 q -16 40 50 11 "},"Â»":{"x_min":55.609375,"x_max":755.484375,"ha":836,"o":"m 55 95 l 84 238 l 322 416 l 152 598 l 176 718 l 438 434 l 429 379 l 55 95 m 372 95 l 401 238 l 638 416 l 469 598 l 493 718 l 755 434 l 745 379 l 372 95 "},"âˆ†":{"x_min":-4.0625,"x_max":841.609375,"ha":836,"o":"m -4 0 l 347 965 l 488 965 l 841 0 l -4 0 m 417 827 l 168 117 l 668 117 l 417 827 "},"Â©":{"x_min":0,"x_max":836,"ha":836,"o":"m 586 726 l 586 653 q 508 681 546 672 q 431 691 471 691 q 306 640 352 691 q 261 502 261 589 q 308 365 261 413 q 444 317 355 317 q 517 325 482 317 q 586 351 552 333 l 586 281 q 511 258 550 265 q 431 251 473 251 q 239 318 309 251 q 169 502 169 386 q 239 688 169 620 q 431 757 310 757 q 511 749 473 757 q 586 726 550 742 m 417 851 q 284 825 345 851 q 172 749 222 800 q 95 636 121 699 q 69 502 69 574 q 95 369 69 432 q 172 257 121 307 q 284 179 223 205 q 417 154 346 154 q 550 179 489 154 q 663 257 612 205 q 740 369 715 308 q 766 502 766 431 q 740 636 766 574 q 663 749 714 699 q 551 825 612 800 q 417 851 490 851 m 417 921 q 577 890 503 921 q 712 798 651 859 q 804 662 773 737 q 836 502 836 588 q 805 344 836 417 q 712 208 774 270 q 577 115 650 146 q 417 85 503 85 q 259 115 332 85 q 123 208 185 146 q 30 344 61 270 q 0 502 0 417 q 31 662 0 588 q 123 798 62 737 q 258 890 184 859 q 417 921 332 921 "},"Ë˜":{"x_min":318,"x_max":744.15625,"ha":836,"o":"m 320 1091 l 401 1091 l 401 1079 q 430 1012 401 1035 q 517 989 460 989 q 607 1014 571 989 q 663 1091 643 1039 l 744 1091 q 661 945 722 995 q 507 896 601 896 q 367 939 416 896 q 318 1063 318 982 q 318 1080 318 1074 q 320 1091 318 1085 "},"â‰¥":{"x_min":60,"x_max":777,"ha":836,"o":"m 60 296 l 604 455 l 60 612 l 60 736 l 777 512 l 777 398 l 60 173 l 60 296 m 60 115 l 777 115 l 777 0 l 60 0 l 60 115 "},"Ã²":{"x_min":79,"x_max":755,"ha":836,"o":"m 471 672 q 286 555 360 672 q 212 260 212 439 q 249 129 212 173 q 363 85 287 85 q 549 201 474 85 q 623 496 623 317 q 585 628 623 584 q 471 672 547 672 m 483 777 q 685 705 616 777 q 755 492 755 632 q 727 306 755 399 q 649 140 699 214 q 519 20 595 60 q 342 -20 442 -20 q 147 54 215 -20 q 79 266 79 128 q 106 449 79 357 q 185 617 134 541 q 314 737 239 696 q 483 777 390 777 m 441 1110 l 574 856 l 477 856 l 306 1110 l 441 1110 "},"^":{"x_min":48.828125,"x_max":787.359375,"ha":836,"o":"m 478 1013 l 787 635 l 666 635 l 417 903 l 169 635 l 48 635 l 358 1013 l 478 1013 "},"Â«":{"x_min":50.1875,"x_max":750.0625,"ha":836,"o":"m 750 718 l 720 575 l 483 396 l 653 215 l 629 95 l 366 379 l 377 434 l 750 718 m 433 718 l 404 575 l 166 396 l 336 215 l 312 95 l 50 379 l 61 434 l 433 718 "},"D":{"x_min":-5.046875,"x_max":767,"ha":836,"o":"m 220 113 q 421 155 345 113 q 543 293 497 197 q 603 479 580 371 q 627 677 627 587 q 571 848 627 796 q 384 900 515 900 l 307 900 l 154 113 l 220 113 m 397 1013 q 675 928 583 1013 q 767 673 767 844 q 738 447 767 563 q 661 240 709 330 q 485 55 591 110 q 200 0 380 0 l -5 0 l 192 1013 l 397 1013 "},"âˆ™":{"x_min":308.5625,"x_max":519.484375,"ha":836,"o":"m 347 586 l 519 586 l 479 379 l 308 379 l 347 586 "},"Ã¿":{"x_min":-26.453125,"x_max":830.75,"ha":836,"o":"m 533 244 q 421 48 491 171 q 279 -187 316 -138 q 189 -264 240 -239 q 73 -289 139 -289 l -26 -289 l -6 -185 l 66 -185 q 161 -153 121 -185 q 241 -45 200 -121 l 270 11 l 123 759 l 247 759 l 364 174 l 691 760 l 830 760 l 533 244 m 322 1053 l 459 1053 l 433 916 l 295 916 l 322 1053 m 587 1053 l 724 1053 l 698 916 l 560 916 l 587 1053 "},"Ã­":{"x_min":41.375,"x_max":743.953125,"ha":836,"o":"m 242 760 l 562 760 l 433 97 l 680 97 l 661 0 l 41 0 l 61 97 l 308 97 l 417 663 l 223 663 l 242 760 m 595 1111 l 743 1111 l 476 856 l 370 856 l 595 1111 "},"Ë†":{"x_min":269.234375,"x_max":697.15625,"ha":836,"o":"m 486 1111 l 585 1111 l 697 856 l 606 856 l 527 1019 l 375 856 l 269 856 l 486 1111 "},"w":{"x_min":79,"x_max":892.296875,"ha":836,"o":"m 79 760 l 187 760 l 187 145 l 374 538 l 484 538 l 517 145 l 762 760 l 892 760 l 562 0 l 450 0 l 410 422 l 208 0 l 79 0 l 79 760 "},"$":{"x_min":20.765625,"x_max":733.796875,"ha":836,"o":"m 426 398 l 368 98 q 509 147 455 98 q 563 275 563 196 q 531 356 563 327 q 426 398 499 385 m 381 524 l 435 800 q 304 753 355 800 q 253 638 253 706 q 281 565 253 591 q 381 524 309 540 m 308 -204 l 240 -204 l 280 0 q 150 15 215 0 q 20 61 85 31 l 44 184 q 163 119 99 143 q 298 96 227 96 l 359 410 q 186 483 240 434 q 132 618 132 533 q 221 814 132 736 q 453 893 311 893 l 485 1055 l 553 1055 l 521 894 q 632 882 579 894 q 733 854 685 871 l 712 736 q 615 779 668 764 q 503 801 563 795 l 448 512 q 626 433 566 489 q 687 288 687 376 q 594 82 687 163 q 355 1 501 1 l 348 1 l 308 -204 "},"âˆ«":{"x_min":87,"x_max":745,"ha":836,"o":"m 272 -178 q 347 288 347 -178 q 347 400 347 361 q 413 900 347 749 q 619 1051 479 1051 q 710 1022 675 1051 q 745 949 745 993 q 723 891 745 913 q 664 870 701 870 q 616 883 636 870 q 589 919 597 896 q 582 954 585 930 q 567 979 579 979 q 483 559 483 979 q 483 353 483 428 q 416 -111 483 28 q 213 -252 350 -252 q 122 -223 157 -252 q 87 -151 87 -195 q 110 -92 87 -113 q 177 -70 134 -70 q 217 -80 200 -70 q 245 -109 234 -90 q 255 -149 251 -121 q 272 -178 259 -178 "},"\\":{"x_min":241.421875,"x_max":491.671875,"ha":836,"o":"m 491 -129 l 376 -129 l 241 1013 l 356 1013 l 491 -129 "},"ÃŒ":{"x_min":38.65625,"x_max":797.53125,"ha":836,"o":"m 234 1013 l 797 1013 l 775 898 l 562 898 l 410 115 l 623 115 l 601 0 l 38 0 l 61 115 l 273 115 l 425 898 l 212 898 l 234 1013 m 501 1288 l 600 1109 l 506 1109 l 377 1288 l 501 1288 "},"Âµ":{"x_min":-26.578125,"x_max":786,"ha":836,"o":"m -26 -289 l 177 759 l 304 759 l 212 287 q 206 248 208 266 q 204 216 204 230 q 241 121 204 154 q 347 89 278 89 q 495 145 440 89 q 573 317 551 201 l 659 760 l 786 760 l 672 175 q 669 154 670 163 q 668 138 668 145 q 676 106 668 117 q 701 96 684 96 q 718 99 707 96 q 750 111 729 102 l 730 10 q 678 -12 703 -4 q 630 -20 653 -20 q 558 9 585 -20 q 532 87 532 38 q 448 6 496 31 q 335 -19 401 -19 q 230 8 272 -19 q 166 93 188 36 l 92 -289 l -26 -289 "},"Ã‡":{"x_min":78,"x_max":822.203125,"ha":836,"o":"m 640 35 q 525 -6 583 7 q 405 -20 467 -20 q 163 70 249 -20 q 78 323 78 160 q 125 619 78 472 q 250 858 172 765 q 410 988 322 946 q 609 1031 497 1031 q 717 1016 664 1031 q 822 975 771 1002 l 794 835 q 702 898 751 877 q 600 920 654 920 q 480 892 535 920 q 377 808 425 865 q 264 595 307 725 q 221 333 221 464 q 273 153 221 216 q 426 91 326 91 q 545 113 484 91 q 666 176 607 134 l 640 35 m 447 0 q 484 -74 472 -43 q 496 -130 496 -106 q 448 -231 496 -194 q 319 -268 400 -268 q 257 -262 289 -268 q 193 -247 225 -257 l 210 -160 q 262 -179 238 -173 q 309 -186 287 -186 q 380 -165 355 -186 q 406 -108 406 -145 q 396 -63 406 -89 q 366 0 386 -36 l 447 0 "},"â€™":{"x_min":314,"x_max":629.34375,"ha":836,"o":"m 458 1055 l 629 1055 l 601 915 l 417 655 l 314 655 l 430 915 l 458 1055 "},"-":{"x_min":205.484375,"x_max":581.875,"ha":836,"o":"m 227 436 l 581 436 l 559 325 l 205 325 l 227 436 "},"Q":{"x_min":56,"x_max":781,"ha":836,"o":"m 342 -18 l 335 -18 q 122 62 189 -18 q 56 321 56 143 q 70 482 56 396 q 114 661 85 569 q 156 773 133 724 q 205 863 179 823 q 339 990 265 949 q 511 1031 413 1031 q 714 947 648 1031 q 781 691 781 864 q 771 568 781 635 q 742 426 761 502 q 700 289 722 348 q 653 186 678 231 q 569 75 617 121 q 468 7 522 29 l 573 -120 l 468 -182 l 342 -18 m 340 92 q 447 126 398 92 q 528 225 496 161 q 609 463 578 323 q 641 732 641 603 q 605 874 641 828 q 495 920 569 920 q 389 885 437 920 q 309 786 340 850 q 226 548 257 686 q 195 281 195 410 q 230 138 195 184 q 340 92 266 92 "},"M":{"x_min":-40.015625,"x_max":876.1875,"ha":836,"o":"m 155 1013 l 337 1013 l 412 500 l 693 1013 l 876 1013 l 678 0 l 552 0 l 727 900 l 433 361 l 337 361 l 259 900 l 86 0 l -40 0 l 155 1013 "},"C":{"x_min":78,"x_max":821.859375,"ha":836,"o":"m 640 35 q 525 -6 583 7 q 405 -20 467 -20 q 163 70 249 -20 q 78 323 78 160 q 125 619 78 472 q 250 858 172 765 q 410 988 322 946 q 609 1031 497 1031 q 717 1016 663 1031 q 821 975 771 1002 l 794 835 q 702 898 750 877 q 600 920 654 920 q 480 892 535 920 q 377 808 425 865 q 264 594 307 725 q 221 333 221 464 q 273 153 221 215 q 426 91 326 91 q 545 112 484 91 q 666 175 606 134 l 640 35 "},"!":{"x_min":251.59375,"x_max":585.9375,"ha":836,"o":"m 448 1013 l 585 1013 l 498 568 l 438 326 l 328 326 l 362 568 l 448 1013 m 284 172 l 422 172 l 388 0 l 251 0 l 284 172 "},"Ã§":{"x_min":106,"x_max":771.15625,"ha":836,"o":"m 637 34 q 531 -6 588 7 q 413 -20 474 -20 q 183 56 261 -20 q 106 281 106 132 q 142 480 106 383 q 240 644 178 577 q 378 744 303 711 q 544 778 454 778 q 661 763 605 778 q 771 719 717 748 l 746 596 q 653 653 701 635 q 548 672 606 672 q 416 642 474 672 q 318 551 358 611 q 258 424 280 495 q 237 282 237 352 q 284 135 237 184 q 422 86 330 86 q 547 107 487 86 q 664 170 607 128 l 637 34 m 457 0 q 494 -74 482 -43 q 506 -130 506 -106 q 458 -231 506 -194 q 329 -268 410 -268 q 268 -262 299 -268 q 204 -247 236 -257 l 221 -160 q 273 -179 248 -173 q 319 -186 297 -186 q 390 -165 365 -186 q 416 -108 416 -145 q 406 -63 416 -89 q 376 0 396 -36 l 457 0 "},"Ãˆ":{"x_min":35.9375,"x_max":833.46875,"ha":836,"o":"m 233 1013 l 833 1013 l 811 898 l 347 898 l 288 597 l 731 597 l 710 482 l 266 482 l 195 115 l 672 115 l 649 0 l 35 0 l 233 1013 m 527 1288 l 627 1109 l 533 1109 l 404 1288 l 527 1288 "},"{":{"x_min":124.6875,"x_max":797.75,"ha":836,"o":"m 797 1055 l 778 958 l 725 958 q 601 931 632 958 q 548 802 569 904 l 514 632 q 451 474 491 523 q 334 410 410 425 q 411 363 384 398 q 439 277 439 328 q 436 239 439 260 q 429 191 434 217 l 397 26 q 391 -13 391 3 q 391 -47 391 -30 q 419 -109 391 -90 q 514 -129 448 -129 l 567 -129 l 547 -227 l 498 -227 q 316 -190 371 -227 q 261 -69 261 -153 q 263 -25 261 -48 q 270 22 265 -2 l 301 182 q 303 191 301 184 q 310 255 310 224 q 276 338 310 313 q 166 364 243 364 l 124 364 l 144 464 l 185 464 q 326 501 284 464 q 389 640 369 538 l 423 805 q 465 937 440 888 q 526 1012 489 985 q 604 1045 558 1035 q 742 1055 651 1055 l 797 1055 "},"X":{"x_min":-86.125,"x_max":906.71875,"ha":836,"o":"m 164 1013 l 299 1013 l 451 652 l 750 1013 l 906 1013 l 502 525 l 722 0 l 585 0 l 413 415 l 70 0 l -86 0 l 359 540 l 164 1013 "},"Ã´":{"x_min":79,"x_max":755,"ha":836,"o":"m 471 672 q 286 555 360 672 q 212 260 212 439 q 249 129 212 173 q 363 85 287 85 q 549 201 474 85 q 623 496 623 317 q 585 628 623 584 q 471 672 547 672 m 483 777 q 685 705 616 777 q 755 492 755 632 q 727 306 755 399 q 649 140 699 214 q 519 20 595 60 q 342 -20 442 -20 q 147 54 215 -20 q 79 266 79 128 q 106 449 79 357 q 185 617 134 541 q 314 737 239 696 q 483 777 390 777 m 485 1110 l 585 1110 l 696 856 l 606 856 l 527 1019 l 374 856 l 268 856 l 485 1110 "},"Â¼":{"x_min":31.875,"x_max":768.359375,"ha":836,"o":"m 75 634 l 214 634 l 294 1048 l 137 1020 l 152 1099 l 314 1125 l 406 1125 l 311 634 l 450 634 l 436 559 l 61 559 l 75 634 m 47 341 l 31 415 l 750 590 l 768 516 l 47 341 m 611 383 l 720 383 l 649 17 l 729 17 l 715 -58 l 634 -58 l 612 -182 l 518 -182 l 541 -58 l 280 -58 l 295 23 l 611 383 m 608 282 l 376 17 l 556 17 l 608 282 "},"#":{"x_min":-4.0625,"x_max":836.1875,"ha":836,"o":"m 527 612 l 360 612 l 304 385 l 470 385 l 527 612 m 458 997 l 387 716 l 554 716 l 625 997 l 733 997 l 662 716 l 836 716 l 809 612 l 636 612 l 579 385 l 754 385 l 727 281 l 552 281 l 482 0 l 373 0 l 444 281 l 278 281 l 206 0 l 98 0 l 169 281 l -4 281 l 22 385 l 195 385 l 252 612 l 77 612 l 104 716 l 279 716 l 349 997 l 458 997 "},"ÃŠ":{"x_min":35.9375,"x_max":833.46875,"ha":836,"o":"m 233 1013 l 833 1013 l 811 898 l 347 898 l 288 597 l 731 597 l 710 482 l 266 482 l 195 115 l 672 115 l 649 0 l 35 0 l 233 1013 m 507 1289 l 652 1289 l 759 1109 l 669 1109 l 575 1229 l 433 1109 l 330 1109 l 507 1289 "},")":{"x_min":101.859375,"x_max":555.5625,"ha":836,"o":"m 101 -183 q 342 227 261 20 q 424 640 424 434 q 403 841 424 739 q 343 1054 383 944 l 451 1054 q 530 819 504 926 q 555 616 555 712 q 468 207 555 411 q 209 -183 380 4 l 101 -183 "},"Ã…":{"x_min":-71.625,"x_max":712.703125,"ha":836,"o":"m 627 1103 q 596 1175 627 1145 q 523 1206 566 1206 q 450 1176 480 1206 q 421 1103 421 1147 q 450 1030 421 1060 q 523 1000 480 1000 q 596 1030 566 1000 q 627 1103 627 1060 m 498 899 l 251 374 l 543 374 l 498 899 m 406 960 q 355 1020 372 983 q 338 1102 338 1056 q 391 1234 338 1180 q 523 1289 445 1289 q 655 1234 600 1289 q 710 1102 710 1180 q 683 1005 710 1048 q 608 940 656 962 l 712 0 l 576 0 l 552 264 l 200 264 l 75 0 l -71 0 l 406 960 "},"Ã¸":{"x_min":32.171875,"x_max":796.6875,"ha":836,"o":"m 618 559 l 255 125 q 302 95 276 105 q 364 85 329 85 q 549 202 475 85 q 624 496 624 318 q 623 530 624 514 q 618 559 621 545 m 119 89 q 90 165 99 122 q 81 263 81 209 q 108 451 81 359 q 186 617 135 543 q 316 738 241 698 q 492 777 392 777 q 585 765 545 777 q 657 728 626 753 l 733 821 l 796 769 l 713 670 q 745 593 734 636 q 756 492 756 549 q 728 306 756 399 q 650 140 700 214 q 519 20 596 60 q 343 -20 443 -20 q 251 -7 293 -20 q 175 30 209 5 l 94 -65 l 32 -13 l 119 89 m 578 636 q 532 663 557 655 q 472 672 507 672 q 287 555 361 672 q 213 256 213 438 q 213 229 213 243 q 216 204 213 216 l 578 636 "},"Ã¢":{"x_min":49,"x_max":737,"ha":836,"o":"m 469 381 q 349 375 388 381 q 280 358 309 370 q 206 298 234 340 q 179 207 179 256 q 213 117 179 151 q 308 84 248 84 q 481 155 408 84 q 580 353 554 227 l 585 381 l 469 381 m 720 432 l 636 0 l 511 0 l 532 111 q 417 14 484 48 q 276 -20 351 -20 q 111 36 173 -20 q 49 186 49 93 q 153 399 49 319 q 437 479 258 479 l 604 479 l 612 520 q 614 533 613 526 q 615 552 615 540 q 572 641 615 610 q 450 672 529 672 q 324 654 391 672 q 181 602 256 637 l 205 724 q 344 764 278 751 q 470 777 410 777 q 666 722 596 777 q 737 568 737 666 q 732 511 737 546 q 720 432 728 475 m 488 1110 l 588 1110 l 699 856 l 609 856 l 530 1019 l 377 856 l 271 856 l 488 1110 "},"}":{"x_min":-9.078125,"x_max":663.3125,"ha":836,"o":"m -9 -227 l 9 -129 l 62 -129 q 186 -102 155 -129 q 239 26 218 -75 l 273 196 q 336 354 296 305 q 453 417 377 403 q 376 464 403 430 q 349 551 349 499 q 351 589 349 567 q 358 637 353 611 l 390 802 q 396 842 394 825 q 398 875 398 859 q 369 938 398 919 q 273 958 340 958 l 221 958 l 239 1055 l 289 1055 q 472 1018 417 1055 q 527 898 527 981 q 524 853 527 876 q 517 805 522 830 l 487 645 q 485 637 486 643 q 479 573 479 604 q 512 490 479 515 q 621 465 545 465 l 663 465 l 643 365 l 602 365 q 461 327 504 365 q 396 188 418 290 l 364 23 q 322 -108 347 -60 q 261 -183 298 -157 q 182 -216 229 -206 q 46 -227 136 -227 l -9 -227 "},"â€°":{"x_min":0,"x_max":836,"ha":836,"o":"m 49 384 l 24 450 l 731 731 l 758 666 l 49 384 m 113 196 q 145 114 113 147 q 224 82 177 82 q 303 115 270 82 q 337 196 337 149 q 303 275 337 241 q 224 309 269 309 q 145 276 177 309 q 113 196 113 243 m 31 196 q 86 334 31 278 q 224 390 142 390 q 361 333 305 390 q 418 196 418 277 q 361 56 418 113 q 224 0 304 0 q 86 56 142 0 q 31 196 31 112 m 82 776 q 114 696 82 729 q 194 664 147 664 q 274 696 241 664 q 307 776 307 729 q 273 855 307 821 q 194 889 239 889 q 114 856 147 889 q 82 776 82 823 m 0 776 q 56 914 0 857 q 194 971 112 971 q 331 914 275 971 q 388 776 388 857 q 331 637 388 694 q 194 581 275 581 q 56 637 112 581 q 0 776 0 694 m 529 196 q 561 114 529 147 q 641 82 594 82 q 721 114 688 82 q 754 196 754 147 q 720 275 754 241 q 641 309 687 309 q 561 276 594 309 q 529 196 529 243 m 447 196 q 503 333 447 277 q 641 390 559 390 q 779 333 722 390 q 836 196 836 277 q 779 56 836 113 q 641 0 722 0 q 503 56 559 0 q 447 196 447 113 "},"Ã„":{"x_min":-71.890625,"x_max":745.984375,"ha":836,"o":"m 498 899 l 251 374 l 543 374 l 498 899 m 433 1012 l 600 1012 l 712 0 l 576 0 l 552 264 l 200 264 l 75 0 l -71 0 l 433 1012 m 608 1269 l 745 1269 l 719 1131 l 581 1131 l 608 1269 m 343 1269 l 481 1269 l 453 1131 l 316 1131 l 343 1269 "},"Â¸":{"x_min":123.40625,"x_max":425,"ha":836,"o":"m 376 0 q 413 -75 401 -43 q 425 -131 425 -106 q 377 -231 425 -194 q 248 -268 329 -268 q 187 -262 218 -268 q 123 -247 155 -257 l 140 -160 q 192 -179 167 -173 q 238 -186 217 -186 q 309 -165 284 -186 q 335 -108 335 -145 q 325 -63 335 -89 q 295 0 315 -36 l 376 0 "},"a":{"x_min":49,"x_max":737,"ha":836,"o":"m 469 381 q 349 375 388 381 q 280 358 309 370 q 206 298 234 340 q 179 207 179 256 q 213 117 179 151 q 308 84 248 84 q 481 155 408 84 q 580 353 554 227 l 585 381 l 469 381 m 720 432 l 636 0 l 511 0 l 532 111 q 417 14 484 48 q 276 -20 351 -20 q 111 36 173 -20 q 49 186 49 93 q 153 399 49 319 q 437 479 258 479 l 604 479 l 612 520 q 614 533 613 526 q 615 552 615 540 q 572 641 615 610 q 450 672 529 672 q 324 654 391 672 q 181 602 256 637 l 205 724 q 344 764 278 751 q 470 777 410 777 q 666 722 596 777 q 737 568 737 666 q 732 511 737 546 q 720 432 728 475 "},"â€”":{"x_min":-34.59375,"x_max":820.578125,"ha":836,"o":"m -15 430 l 820 430 l 801 334 l -34 334 l -15 430 "},"=":{"x_min":60,"x_max":777,"ha":836,"o":"m 60 356 l 777 356 l 777 239 l 60 239 l 60 356 m 60 631 l 777 631 l 777 516 l 60 516 l 60 631 "},"N":{"x_min":-4.0625,"x_max":840.25,"ha":836,"o":"m 193 1013 l 366 1013 l 545 179 l 708 1013 l 840 1013 l 642 0 l 469 0 l 290 833 l 127 0 l -4 0 l 193 1013 "},"Ëš":{"x_min":342,"x_max":714,"ha":836,"o":"m 631 1081 q 601 1155 631 1125 q 527 1185 571 1185 q 454 1155 484 1185 q 425 1081 425 1125 q 454 1008 425 1038 q 527 979 484 979 q 601 1008 571 979 q 631 1081 631 1038 m 714 1081 q 659 949 714 1003 q 527 896 605 896 q 395 949 449 896 q 342 1081 342 1003 q 395 1214 342 1160 q 527 1268 449 1268 q 659 1214 605 1268 q 714 1081 714 1160 "},"Ãº":{"x_min":85,"x_max":768.453125,"ha":836,"o":"m 97 289 l 187 760 l 312 760 l 221 289 q 213 241 216 264 q 211 202 211 218 q 242 119 211 148 q 331 91 274 91 q 477 153 417 91 q 559 331 537 216 l 643 760 l 768 760 l 620 0 l 495 0 l 518 114 q 408 14 468 47 q 276 -18 348 -18 q 136 31 188 -18 q 85 167 85 81 q 88 225 85 193 q 97 289 91 256 m 612 1111 l 761 1111 l 493 856 l 387 856 l 612 1111 "},"2":{"x_min":4.078125,"x_max":764,"ha":836,"o":"m 181 115 l 645 115 l 623 0 l 4 0 l 26 115 l 237 300 l 263 324 q 628 781 628 644 q 584 881 628 845 q 463 917 541 917 q 329 894 401 917 q 172 825 257 871 l 200 963 q 346 1014 276 997 q 483 1031 417 1031 q 686 965 609 1031 q 764 794 764 899 q 739 670 764 729 q 660 541 715 611 q 579 459 637 513 q 398 300 520 406 l 181 115 "},"Ã¼":{"x_min":85,"x_max":768.453125,"ha":836,"o":"m 97 289 l 187 760 l 312 760 l 221 289 q 213 241 216 264 q 211 202 211 218 q 242 119 211 148 q 331 91 274 91 q 477 153 417 91 q 559 331 537 216 l 643 760 l 768 760 l 620 0 l 495 0 l 518 114 q 408 15 468 48 q 276 -18 348 -18 q 136 31 188 -18 q 85 167 85 81 q 88 225 85 193 q 97 289 91 256 m 319 1053 l 457 1053 l 430 916 l 293 916 l 319 1053 m 584 1053 l 722 1053 l 695 916 l 558 916 l 584 1053 "},"Â¯":{"x_min":298.390625,"x_max":723.609375,"ha":836,"o":"m 318 1035 l 723 1035 l 703 935 l 298 935 l 318 1035 "},"Z":{"x_min":-4.0625,"x_max":863.984375,"ha":836,"o":"m 206 1013 l 863 1013 l 844 908 l 180 115 l 705 115 l 682 0 l -4 0 l 15 104 l 677 898 l 184 898 l 206 1013 "},"u":{"x_min":85,"x_max":768.453125,"ha":836,"o":"m 97 289 l 187 760 l 312 760 l 221 289 q 213 241 216 264 q 211 202 211 218 q 242 119 211 148 q 331 91 274 91 q 477 153 417 91 q 559 331 537 216 l 643 760 l 768 760 l 620 0 l 495 0 l 518 114 q 408 14 468 47 q 276 -18 348 -18 q 136 31 188 -18 q 85 167 85 81 q 88 225 85 193 q 97 289 91 256 "},"Ëœ":{"x_min":271.953125,"x_max":752.765625,"ha":836,"o":"m 502 933 l 470 967 q 445 986 457 980 q 422 992 434 992 q 378 966 394 992 q 356 888 362 941 l 271 888 q 322 1030 283 980 q 421 1080 360 1080 q 473 1069 450 1080 q 522 1032 496 1058 l 554 1000 q 579 980 568 986 q 601 975 590 975 q 645 1001 629 975 q 668 1080 662 1027 l 752 1080 q 702 936 741 986 q 604 887 664 887 q 552 896 574 887 q 502 933 529 906 "},"Ã“":{"x_min":56,"x_max":781,"ha":836,"o":"m 340 91 q 447 125 398 91 q 528 224 496 160 q 609 463 578 323 q 641 731 641 602 q 605 874 641 828 q 495 920 569 920 q 389 885 437 920 q 309 786 340 850 q 226 547 257 686 q 195 280 195 409 q 230 137 195 183 q 340 91 266 91 m 781 691 q 765 529 781 617 q 721 349 750 441 q 679 237 701 287 q 630 148 656 188 q 496 20 570 61 q 324 -20 422 -20 q 121 63 187 -20 q 56 320 56 146 q 70 482 56 396 q 114 661 85 569 q 156 773 133 723 q 205 862 179 822 q 339 990 265 949 q 511 1031 413 1031 q 714 947 648 1031 q 781 691 781 864 m 595 1288 l 736 1288 l 528 1109 l 419 1109 l 595 1288 "},"k":{"x_min":61.03125,"x_max":816.515625,"ha":836,"o":"m 266 1055 l 396 1055 l 280 462 l 653 759 l 816 759 l 463 473 l 716 -1 l 572 -1 l 364 394 l 250 304 l 190 0 l 61 0 l 266 1055 "},"Ë‡":{"x_min":319.421875,"x_max":747.34375,"ha":836,"o":"m 530 856 l 430 856 l 319 1111 l 408 1111 l 488 946 l 641 1111 l 747 1111 l 530 856 "},"Ã™":{"x_min":54,"x_max":834.625,"ha":836,"o":"m 77 388 l 198 1012 l 336 1012 l 214 388 q 209 360 213 379 q 189 215 189 255 q 225 122 189 153 q 337 91 262 91 q 439 110 397 91 q 512 171 481 129 q 542 243 527 192 q 576 388 557 295 l 696 1012 l 834 1012 l 713 388 q 653 170 685 239 q 568 57 620 100 q 458 0 519 20 q 324 -20 396 -20 q 124 41 194 -20 q 54 214 54 102 q 59 282 54 239 q 77 388 65 325 m 499 1287 l 599 1109 l 505 1109 l 376 1287 l 499 1287 "},"â‚¬":{"x_min":-6.640625,"x_max":808.84375,"ha":836,"o":"m 161 643 q 337 933 224 835 q 607 1031 450 1031 q 708 1016 657 1031 q 808 975 760 1002 l 782 835 q 690 899 734 879 q 597 920 646 920 q 428 848 504 920 q 304 643 353 776 l 625 643 l 591 570 l 282 570 q 268 509 274 540 q 256 443 261 478 l 534 443 l 502 368 l 248 368 l 248 331 q 297 153 248 215 q 437 91 346 91 q 547 112 489 91 q 663 175 605 134 l 636 35 q 528 -6 582 7 q 415 -20 473 -20 q 187 71 265 -20 q 110 337 110 162 l 110 368 l -6 368 l 26 443 l 116 443 q 128 513 122 483 q 140 570 133 543 l 33 570 l 66 643 l 161 643 "},"Â¢":{"x_min":83,"x_max":736.546875,"ha":836,"o":"m 736 730 l 714 614 q 639 654 681 639 q 549 673 598 669 l 434 85 q 525 101 478 85 q 623 144 572 117 l 600 27 q 503 -5 550 6 q 414 -17 457 -17 l 377 -212 l 307 -212 l 345 -18 q 152 77 221 -4 q 83 291 83 159 q 137 527 83 417 q 288 702 192 637 q 388 755 335 736 q 499 774 440 774 l 537 971 l 606 971 l 569 775 q 652 763 609 775 q 736 730 694 751 m 366 86 l 480 672 q 290 550 368 662 q 213 286 213 439 q 252 146 213 198 q 366 86 292 94 "},"ÃŸ":{"x_min":37.203125,"x_max":763,"ha":836,"o":"m 186 770 q 296 984 215 914 q 514 1055 377 1055 q 698 1000 634 1055 q 763 845 763 946 q 760 799 763 823 q 751 751 757 776 q 565 691 633 737 q 497 580 497 645 q 510 534 497 554 q 565 483 524 513 l 600 457 q 705 354 677 399 q 733 250 733 309 q 645 53 733 126 q 406 -19 557 -19 q 313 -10 358 -19 q 223 13 267 -2 l 244 125 q 329 92 284 103 q 422 81 374 81 q 562 123 511 81 q 614 239 614 165 q 595 302 614 274 q 519 372 577 329 l 478 404 q 397 481 416 450 q 379 555 379 512 q 447 709 379 644 q 637 799 516 774 q 640 819 639 809 q 641 839 641 828 q 605 922 641 892 q 508 953 570 953 q 378 907 426 953 q 312 768 330 861 l 164 0 l 37 0 l 186 770 "},"Ã©":{"x_min":66,"x_max":763,"ha":836,"o":"m 635 447 q 640 477 639 465 q 642 499 642 489 q 597 626 642 581 q 475 672 553 672 q 323 611 392 672 q 224 447 254 550 l 635 447 m 650 38 q 511 -5 579 9 q 374 -20 444 -20 q 144 55 223 -20 q 66 276 66 131 q 106 483 66 382 q 219 659 147 585 q 343 748 275 717 q 485 779 411 779 q 687 701 611 779 q 763 494 763 623 q 759 437 763 471 q 748 350 756 402 l 201 350 q 195 310 197 328 q 193 279 193 292 q 245 135 193 184 q 396 85 297 85 q 527 105 456 85 q 675 162 597 124 l 650 38 m 614 1111 l 763 1111 l 495 856 l 389 856 l 614 1111 "},"s":{"x_min":77.59375,"x_max":730.25,"ha":836,"o":"m 730 732 l 706 610 q 605 657 658 641 q 499 673 551 673 q 355 638 406 673 q 304 541 304 603 q 454 436 304 474 q 468 432 464 434 l 517 420 q 636 357 597 399 q 676 253 676 316 q 578 55 676 131 q 319 -20 480 -20 q 204 -8 264 -20 q 77 27 144 3 l 102 155 q 226 101 166 119 q 342 84 286 84 q 490 124 433 84 q 547 227 547 164 q 413 329 547 294 q 394 334 401 332 l 349 346 q 220 412 261 369 q 180 525 180 455 q 269 708 180 640 q 511 777 359 777 q 625 765 570 777 q 730 732 680 754 "},"B":{"x_min":15.40625,"x_max":791,"ha":836,"o":"m 247 484 l 174 113 l 342 113 q 533 172 467 113 q 600 342 600 231 q 553 449 600 414 q 410 484 507 484 l 247 484 m 327 900 l 267 595 l 433 595 q 594 644 535 595 q 653 779 653 693 q 615 871 653 843 q 492 900 577 900 l 327 900 m 212 1013 l 512 1013 q 720 959 650 1013 q 791 800 791 905 q 728 625 791 696 q 560 542 666 555 q 690 473 645 526 q 736 335 736 419 q 627 88 736 176 q 322 0 519 0 l 15 0 l 212 1013 "},"â€¦":{"x_min":-44.765625,"x_max":722.25,"ha":836,"o":"m -4 206 l 166 206 l 126 0 l -44 0 l -4 206 m 551 206 l 722 206 l 682 0 l 511 0 l 551 206 m 273 206 l 444 206 l 404 0 l 233 0 l 273 206 "},"?":{"x_min":221.515625,"x_max":760,"ha":836,"o":"m 412 272 l 283 272 l 302 376 q 341 482 315 438 q 444 590 368 526 l 517 651 q 598 738 574 700 q 623 814 623 776 q 585 892 623 864 q 479 920 547 920 q 359 895 426 920 q 221 827 292 871 l 245 954 q 388 1012 319 993 q 525 1031 456 1031 q 694 975 629 1031 q 760 835 760 920 q 727 716 760 771 q 606 588 694 662 l 534 530 q 457 448 477 483 q 427 355 437 413 l 412 272 m 260 172 l 397 172 l 364 0 l 225 0 l 260 172 "},"H":{"x_min":-5.421875,"x_max":841.609375,"ha":836,"o":"m 191 1012 l 328 1012 l 248 597 l 623 597 l 703 1012 l 841 1012 l 644 0 l 507 0 l 601 482 l 225 482 l 132 0 l -5 0 l 191 1012 "},"Ã®":{"x_min":41.375,"x_max":680.875,"ha":836,"o":"m 242 760 l 562 760 l 433 97 l 680 97 l 661 0 l 41 0 l 61 97 l 308 97 l 417 663 l 223 663 l 242 760 m 466 1111 l 566 1111 l 677 856 l 587 856 l 507 1019 l 355 856 l 249 856 l 466 1111 "},"c":{"x_min":106,"x_max":771.28125,"ha":836,"o":"m 637 34 q 531 -6 588 7 q 413 -20 474 -20 q 183 56 261 -20 q 106 281 106 132 q 142 480 106 382 q 240 644 178 577 q 378 744 303 711 q 544 777 454 777 q 661 763 605 777 q 771 719 717 748 l 746 596 q 653 653 701 635 q 548 672 606 672 q 416 641 474 672 q 318 551 358 611 q 258 424 280 495 q 237 281 237 352 q 284 135 237 184 q 422 85 330 85 q 547 106 487 85 q 664 170 607 127 l 637 34 "},"Â¶":{"x_min":85,"x_max":774.03125,"ha":836,"o":"m 498 1012 l 774 1012 l 551 -133 l 457 -133 l 662 929 l 533 929 l 327 -133 l 232 -133 l 343 441 q 154 505 223 441 q 85 679 85 570 q 202 916 85 821 q 498 1012 319 1012 "},"âˆ’":{"x_min":60,"x_max":777,"ha":836,"o":"m 60 493 l 777 493 l 777 378 l 60 378 l 60 493 "},"â‰ ":{"x_min":60,"x_max":777,"ha":836,"o":"m 60 631 l 498 631 l 665 844 l 750 775 l 639 631 l 777 631 l 777 516 l 550 516 l 425 356 l 777 356 l 777 239 l 338 239 l 169 25 l 85 95 l 196 239 l 60 239 l 60 356 l 283 356 l 408 516 l 60 516 l 60 631 "},"â€¢":{"x_min":216,"x_max":619,"ha":836,"o":"m 216 516 q 274 658 216 600 q 417 717 332 717 q 560 658 501 717 q 619 516 619 600 q 559 373 619 432 q 416 315 500 315 q 274 373 332 315 q 216 516 216 431 "},"Â¥":{"x_min":31.875,"x_max":862.625,"ha":836,"o":"m 702 355 l 436 355 l 369 0 l 234 0 l 301 355 l 31 355 l 47 430 l 316 430 l 320 453 l 283 557 l 73 557 l 88 632 l 255 632 l 116 1012 l 257 1012 l 408 562 l 719 1012 l 862 1012 l 588 632 l 759 632 l 744 557 l 533 557 l 458 453 l 451 430 l 718 430 l 702 355 "},"(":{"x_min":253,"x_max":706.703125,"ha":836,"o":"m 706 1054 q 465 642 546 849 q 384 230 384 435 q 404 29 384 131 q 465 -183 424 -73 l 356 -183 q 278 51 303 -54 q 253 254 253 158 q 340 663 253 459 q 598 1054 427 866 l 706 1054 "},"U":{"x_min":54,"x_max":834.625,"ha":836,"o":"m 77 388 l 198 1012 l 336 1012 l 214 388 q 209 360 213 379 q 189 215 189 255 q 225 122 189 153 q 337 91 262 91 q 439 110 397 91 q 512 171 481 129 q 542 243 527 192 q 576 388 557 295 l 696 1012 l 834 1012 l 713 388 q 653 170 685 239 q 568 57 620 100 q 458 0 519 20 q 324 -20 396 -20 q 124 41 194 -20 q 54 214 54 102 q 59 282 54 239 q 77 388 65 325 "},"â—Š":{"x_min":79.34375,"x_max":756.84375,"ha":836,"o":"m 417 955 l 156 401 l 417 -158 l 678 401 l 417 955 m 417 1121 l 756 401 l 417 -323 l 79 401 l 417 1121 "},"Ã‘":{"x_min":-4.0625,"x_max":840.25,"ha":836,"o":"m 193 1013 l 366 1013 l 545 179 l 708 1013 l 840 1013 l 642 0 l 469 0 l 290 833 l 127 0 l -4 0 l 193 1013 m 533 1160 l 509 1177 l 508 1178 q 454 1200 480 1200 q 413 1182 431 1200 q 381 1131 394 1165 l 297 1131 q 362 1242 320 1205 q 462 1280 404 1280 q 506 1272 485 1280 q 551 1248 527 1265 l 575 1230 q 599 1216 587 1220 q 624 1212 611 1212 q 670 1230 651 1212 q 697 1280 689 1248 l 781 1280 q 717 1168 760 1205 q 612 1131 674 1131 q 572 1138 591 1131 q 533 1160 554 1145 "},"F":{"x_min":62.390625,"x_max":855.84375,"ha":836,"o":"m 259 1013 l 855 1013 l 833 898 l 375 898 l 316 599 l 731 599 l 710 484 l 294 484 l 200 0 l 62 0 l 259 1013 "},"Â­":{"x_min":205.484375,"x_max":581.875,"ha":836,"o":"m 227 436 l 581 436 l 559 325 l 205 325 l 227 436 "},":":{"x_min":233.296875,"x_max":544.5625,"ha":836,"o":"m 373 720 l 544 720 l 503 514 l 333 514 l 373 720 m 273 206 l 444 206 l 404 0 l 233 0 l 273 206 "},"Ã›":{"x_min":54,"x_max":834.625,"ha":836,"o":"m 77 388 l 198 1012 l 336 1012 l 214 388 q 209 360 213 379 q 189 215 189 255 q 225 122 189 153 q 337 91 262 91 q 439 110 397 91 q 512 171 481 129 q 542 243 527 192 q 576 388 557 295 l 696 1012 l 834 1012 l 713 388 q 653 170 685 239 q 568 57 620 100 q 458 0 519 20 q 324 -20 396 -20 q 124 41 194 -20 q 54 214 54 102 q 59 282 54 239 q 77 388 65 325 m 479 1289 l 624 1289 l 731 1109 l 641 1109 l 547 1229 l 405 1109 l 302 1109 l 479 1289 "},"*":{"x_min":112.484375,"x_max":723.515625,"ha":836,"o":"m 723 845 l 480 714 l 723 581 l 684 515 l 457 652 l 457 397 l 379 397 l 379 652 l 151 515 l 112 581 l 355 714 l 112 845 l 151 912 l 379 775 l 379 1031 l 457 1031 l 457 775 l 684 912 l 723 845 "},"â€ ":{"x_min":132.25,"x_max":769.71875,"ha":836,"o":"m 457 1012 l 576 1012 l 520 728 l 769 728 l 748 624 l 499 624 l 352 -133 l 234 -133 l 381 624 l 132 624 l 152 728 l 401 728 l 457 1012 "},"âˆ•":{"x_min":10.84375,"x_max":718.1875,"ha":836,"o":"m 10 -129 l 588 1013 l 718 1013 l 139 -129 l 10 -129 "},"Â°":{"x_min":203,"x_max":634,"ha":836,"o":"m 418 1031 q 502 1014 462 1031 q 571 966 541 997 q 618 896 602 935 q 634 813 634 858 q 570 662 634 724 q 416 600 507 600 q 264 661 325 600 q 203 813 203 722 q 265 967 203 904 q 418 1031 327 1031 m 418 943 q 326 905 364 943 q 289 813 289 867 q 326 722 289 759 q 416 686 363 686 q 509 723 471 686 q 548 813 548 760 q 509 905 548 867 q 418 943 471 943 "},"V":{"x_min":134.953125,"x_max":897.21875,"ha":836,"o":"m 345 128 l 751 1013 l 897 1013 l 409 0 l 234 0 l 134 1013 l 269 1013 l 345 128 "},"Ã¥":{"x_min":49,"x_max":737,"ha":836,"o":"m 469 381 q 349 375 388 381 q 280 358 309 370 q 206 298 234 340 q 179 207 179 256 q 213 117 179 151 q 308 84 248 84 q 481 155 408 84 q 580 353 554 227 l 585 381 l 469 381 m 720 432 l 636 0 l 511 0 l 533 111 q 417 14 484 48 q 276 -20 351 -20 q 111 36 173 -20 q 49 186 49 93 q 153 399 49 319 q 437 479 258 479 l 604 479 l 612 520 q 614 533 613 526 q 615 552 615 540 q 572 641 615 610 q 450 672 529 672 q 324 654 392 672 q 181 602 257 637 l 205 724 q 344 764 278 751 q 470 777 410 777 q 666 722 596 777 q 737 568 737 666 q 732 511 737 546 q 720 432 728 475 m 634 1081 q 604 1155 634 1125 q 530 1185 574 1185 q 457 1155 487 1185 q 428 1081 428 1125 q 457 1008 428 1038 q 530 979 487 979 q 604 1008 574 979 q 634 1081 634 1038 m 717 1081 q 662 949 717 1003 q 530 896 608 896 q 398 949 452 896 q 345 1081 345 1003 q 398 1214 345 1160 q 530 1268 452 1268 q 662 1214 608 1268 q 717 1081 717 1160 "},"Â ":{"x_min":0,"x_max":0,"ha":836},"0":{"x_min":66,"x_max":769,"ha":836,"o":"m 326 508 q 353 572 326 545 q 417 600 380 600 q 481 572 454 600 q 508 508 508 545 q 481 444 508 470 q 417 418 455 418 q 353 444 380 418 q 326 508 326 471 m 769 691 q 730 411 769 562 q 634 167 691 261 q 501 26 577 72 q 325 -20 425 -20 q 129 63 193 -20 q 66 320 66 146 q 104 599 66 450 q 200 844 143 748 q 333 985 258 940 q 508 1031 408 1031 q 704 947 640 1031 q 769 691 769 864 m 342 91 q 442 125 396 91 q 521 226 489 160 q 599 461 567 321 q 631 721 631 601 q 597 872 631 825 q 492 920 564 920 q 391 885 437 920 q 311 786 344 850 q 233 550 264 691 q 202 280 202 408 q 236 137 202 184 q 342 91 271 91 "},"â€�":{"x_min":149.875,"x_max":776.5,"ha":836,"o":"m 294 1055 l 465 1055 l 437 915 l 254 655 l 149 655 l 266 915 l 294 1055 m 605 1055 l 776 1055 l 748 915 l 565 655 l 461 655 l 577 915 l 605 1055 "},"Â¾":{"x_min":31.921875,"x_max":768.65625,"ha":836,"o":"m 369 863 q 444 824 418 855 q 471 745 471 793 q 400 602 471 656 q 211 549 330 549 q 123 556 166 549 q 40 576 80 563 l 57 659 q 137 630 102 639 q 206 622 172 622 q 326 653 282 622 q 371 737 371 684 q 342 804 371 782 q 253 826 313 826 l 204 826 l 218 898 l 267 898 q 373 924 333 898 q 413 995 413 951 q 383 1046 413 1029 q 296 1064 354 1064 q 233 1056 267 1064 q 158 1034 199 1049 l 173 1113 q 263 1130 221 1124 q 341 1137 304 1137 q 468 1103 424 1137 q 513 1007 513 1069 q 474 914 513 954 q 369 863 435 875 m 47 341 l 31 415 l 750 590 l 768 517 l 47 341 m 611 383 l 721 383 l 649 17 l 729 17 l 715 -58 l 635 -58 l 612 -182 l 518 -182 l 542 -58 l 280 -58 l 295 23 l 611 383 m 608 282 l 376 17 l 557 17 l 608 282 "},"@":{"x_min":-20,"x_max":823,"ha":836,"o":"m 480 176 q 624 247 565 176 q 683 422 683 319 q 648 525 683 488 q 554 563 614 563 q 413 491 471 563 q 355 318 355 420 q 388 214 355 252 q 480 176 422 176 m 717 91 l 619 91 l 634 166 q 551 100 599 123 q 448 78 503 78 q 303 140 359 78 q 247 301 247 202 q 336 556 247 450 q 549 663 426 663 q 650 638 606 663 q 713 573 693 614 l 718 602 q 724 643 722 625 q 727 671 727 661 q 677 803 727 756 q 539 851 628 851 q 354 798 443 851 q 200 648 265 745 q 113 462 143 564 q 84 254 84 361 q 171 -19 84 80 q 411 -119 259 -119 q 491 -110 450 -119 q 577 -84 531 -102 l 607 -173 q 514 -204 563 -194 q 410 -215 466 -215 q 97 -86 215 -215 q -20 256 -20 41 q 28 528 -20 393 q 161 761 76 663 q 335 898 235 850 q 542 947 435 947 q 747 876 671 947 q 823 685 823 805 q 819 639 823 665 q 810 581 816 613 l 717 91 "},"Ã¶":{"x_min":79,"x_max":755,"ha":836,"o":"m 471 672 q 286 555 360 672 q 212 260 212 439 q 249 129 212 173 q 363 85 287 85 q 549 201 474 85 q 623 496 623 317 q 585 628 623 584 q 471 672 547 672 m 483 777 q 685 705 616 777 q 755 492 755 632 q 727 306 755 399 q 649 140 699 214 q 519 20 595 60 q 342 -20 442 -20 q 147 54 215 -20 q 79 266 79 128 q 106 449 79 357 q 185 617 134 541 q 314 737 239 696 q 483 777 390 777 m 321 1052 l 459 1052 l 432 915 l 295 915 l 321 1052 m 586 1052 l 724 1052 l 698 915 l 560 915 l 586 1052 "},"i":{"x_min":41.375,"x_max":680.875,"ha":836,"o":"m 242 759 l 562 759 l 433 97 l 680 97 l 661 0 l 41 0 l 61 97 l 308 97 l 417 662 l 223 662 l 242 759 m 494 1055 l 619 1055 l 588 897 l 463 897 l 494 1055 "},"â‰¤":{"x_min":58,"x_max":775,"ha":836,"o":"m 775 296 l 775 173 l 58 398 l 58 512 l 775 736 l 775 612 l 231 455 l 775 296 m 775 115 l 775 0 l 58 0 l 58 115 l 775 115 "},"Ã•":{"x_min":56,"x_max":781,"ha":836,"o":"m 340 91 q 447 125 398 91 q 528 224 496 160 q 609 463 578 323 q 641 731 641 602 q 605 874 641 828 q 495 920 569 920 q 389 885 437 920 q 309 786 340 850 q 226 547 257 686 q 195 280 195 409 q 230 137 195 183 q 340 91 266 91 m 781 691 q 765 529 781 617 q 721 349 750 441 q 679 237 701 287 q 630 148 656 188 q 496 20 570 61 q 324 -20 422 -20 q 121 63 187 -20 q 56 320 56 146 q 70 482 56 396 q 114 661 85 569 q 156 773 133 723 q 205 862 179 822 q 339 990 265 949 q 511 1031 413 1031 q 714 947 648 1031 q 781 691 781 864 m 531 1159 l 507 1176 l 506 1177 q 452 1199 478 1199 q 410 1181 429 1199 q 379 1130 392 1164 l 294 1130 q 360 1241 318 1204 q 460 1279 402 1279 q 504 1271 483 1279 q 549 1247 525 1264 l 573 1229 q 597 1215 585 1219 q 622 1211 609 1211 q 668 1229 649 1211 q 695 1279 687 1247 l 779 1279 q 715 1167 757 1205 q 610 1130 672 1130 q 570 1137 589 1130 q 531 1159 552 1144 "},"Ã¾":{"x_min":-1.4375,"x_max":764.5625,"ha":836,"o":"m 198 95 l 123 -289 l -1 -289 l 261 1062 l 385 1062 l 308 662 q 408 748 349 718 q 534 778 466 778 q 704 707 643 778 q 764 510 764 636 q 737 315 764 413 q 663 143 711 217 q 543 21 612 62 q 391 -19 474 -19 q 276 8 324 -19 q 198 95 228 37 m 385 86 q 485 116 440 86 q 561 204 531 146 q 614 344 595 266 q 633 499 633 423 q 598 629 633 586 q 494 672 563 672 q 390 641 436 672 q 311 551 343 611 q 258 414 277 491 q 240 259 240 337 q 277 131 240 176 q 385 86 315 86 "},"]":{"x_min":99.6875,"x_max":629.34375,"ha":836,"o":"m 629 1055 l 387 -184 l 99 -184 l 119 -87 l 282 -87 l 484 958 l 322 958 l 341 1055 l 629 1055 "},"m":{"x_min":-9.734375,"x_max":799,"ha":836,"o":"m 507 682 q 575 753 533 728 q 670 778 618 778 q 764 741 729 778 q 799 641 799 704 q 792 559 799 605 q 772 440 786 512 l 686 0 l 572 0 l 656 435 q 675 537 669 497 q 682 593 682 577 q 666 655 682 636 q 616 674 650 674 q 536 630 565 674 q 479 435 508 586 l 394 0 l 280 0 l 365 435 q 383 539 378 501 q 389 593 389 577 q 373 654 389 634 q 324 674 357 674 q 246 633 274 674 q 188 435 219 593 l 104 0 l -9 0 l 137 760 l 251 760 l 238 694 q 305 756 268 735 q 387 778 343 778 q 469 752 437 778 q 507 682 500 727 "},"8":{"x_min":28,"x_max":764,"ha":836,"o":"m 557 312 q 512 435 557 390 q 387 480 467 480 q 229 413 291 480 q 167 242 167 346 q 212 128 167 171 q 333 85 257 85 q 495 148 434 85 q 557 312 557 210 m 291 537 q 182 612 219 563 q 146 732 146 661 q 246 943 146 856 q 491 1030 346 1030 q 688 969 612 1030 q 764 809 764 907 q 698 634 764 711 q 523 529 632 557 q 652 453 609 509 q 696 306 696 396 q 592 72 696 165 q 329 -20 489 -20 q 108 49 188 -20 q 28 239 28 118 q 98 432 28 352 q 291 537 169 512 m 479 925 q 337 870 393 925 q 282 731 282 815 q 321 625 282 664 q 430 587 361 587 q 571 646 514 587 q 628 789 628 705 q 587 888 628 851 q 479 925 546 925 "},"R":{"x_min":8.234375,"x_max":781,"ha":836,"o":"m 519 478 q 597 432 568 468 q 664 276 627 396 l 746 0 l 609 0 l 537 255 q 471 394 508 361 q 359 428 434 428 l 229 428 l 145 0 l 8 0 l 204 1013 l 486 1013 q 703 952 626 1013 q 781 780 781 891 q 710 575 781 656 q 519 478 640 493 m 320 900 l 251 541 l 400 541 q 576 598 510 541 q 643 753 643 656 q 600 864 643 828 q 465 900 557 900 l 320 900 "},"Ã¡":{"x_min":49,"x_max":766.15625,"ha":836,"o":"m 469 381 q 349 375 388 381 q 280 358 309 370 q 206 298 234 340 q 179 207 179 256 q 213 117 179 151 q 308 84 248 84 q 481 155 408 84 q 580 353 554 227 l 585 381 l 469 381 m 720 432 l 636 0 l 511 0 l 532 111 q 417 14 484 48 q 276 -20 351 -20 q 111 36 173 -20 q 49 186 49 93 q 153 399 49 319 q 437 479 258 479 l 604 479 l 612 520 q 614 533 613 526 q 615 552 615 540 q 572 641 615 610 q 450 672 529 672 q 324 654 391 672 q 181 602 256 637 l 205 724 q 344 764 278 751 q 470 777 410 777 q 666 722 596 777 q 737 568 737 666 q 732 511 737 546 q 720 432 728 475 m 617 1111 l 766 1111 l 498 856 l 392 856 l 617 1111 "},"Ã—":{"x_min":101.71875,"x_max":734.453125,"ha":836,"o":"m 101 198 l 339 434 l 101 672 l 180 751 l 417 514 l 655 751 l 734 672 l 497 434 l 733 198 l 654 118 l 417 355 l 181 118 l 101 198 "},"o":{"x_min":79,"x_max":755,"ha":836,"o":"m 471 672 q 286 555 360 672 q 212 260 212 439 q 249 129 212 173 q 363 85 287 85 q 549 201 474 85 q 623 496 623 317 q 585 628 623 584 q 471 672 547 672 m 483 777 q 685 705 616 777 q 755 492 755 632 q 727 306 755 399 q 649 140 699 214 q 519 20 595 60 q 342 -20 442 -20 q 147 54 215 -20 q 79 266 79 128 q 106 449 79 357 q 185 617 134 541 q 314 737 239 696 q 483 777 390 777 "},"5":{"x_min":2.515625,"x_max":750.890625,"ha":836,"o":"m 238 1012 l 750 1012 l 728 897 l 341 897 l 292 647 q 354 663 324 658 q 414 669 384 669 q 620 592 542 669 q 698 389 698 515 q 662 226 698 305 q 561 88 626 146 q 425 7 502 34 q 251 -20 348 -20 q 114 -8 178 -20 q 2 23 51 2 l 30 162 q 146 110 87 127 q 270 94 206 94 q 479 173 396 94 q 562 370 562 252 q 507 506 562 457 q 356 556 452 556 q 246 542 302 556 q 140 503 191 528 l 238 1012 "},"Ãµ":{"x_min":79,"x_max":755,"ha":836,"o":"m 471 672 q 286 555 360 672 q 212 260 212 439 q 249 129 212 173 q 363 85 287 85 q 549 201 474 85 q 623 496 623 317 q 585 628 623 584 q 471 672 547 672 m 483 777 q 685 705 616 777 q 755 492 755 632 q 727 306 755 399 q 649 140 699 214 q 519 20 595 60 q 342 -20 442 -20 q 147 54 215 -20 q 79 266 79 128 q 106 449 79 357 q 185 617 134 541 q 314 737 239 696 q 483 777 390 777 m 502 933 l 470 966 q 445 985 457 979 q 422 991 433 991 q 377 965 393 991 q 356 888 361 940 l 271 888 q 321 1029 283 980 q 420 1079 360 1079 q 472 1068 449 1079 q 521 1031 496 1057 l 553 999 q 578 979 567 985 q 601 974 589 974 q 645 1000 628 974 q 667 1079 662 1026 l 752 1079 q 702 935 740 985 q 603 886 664 886 q 551 895 573 886 q 502 933 529 905 "},"7":{"x_min":118,"x_max":821.9375,"ha":836,"o":"m 187 1012 l 821 1012 l 811 948 l 265 0 l 118 0 l 645 897 l 165 897 l 187 1012 "},"K":{"x_min":-5.421875,"x_max":918.234375,"ha":836,"o":"m 191 1013 l 328 1013 l 242 574 l 745 1013 l 918 1013 l 441 593 l 731 0 l 583 0 l 339 502 l 208 388 l 132 0 l -5 0 l 191 1013 "},",":{"x_min":137.671875,"x_max":453.015625,"ha":836,"o":"m 282 205 l 453 205 l 425 64 l 241 -195 l 137 -195 l 254 64 l 282 205 "},"d":{"x_min":81,"x_max":850.140625,"ha":836,"o":"m 465 672 q 360 642 405 672 q 283 553 315 612 q 232 415 250 492 q 214 259 214 337 q 248 129 214 172 q 351 85 283 85 q 455 116 409 85 q 534 206 502 146 q 587 343 568 265 q 606 499 606 422 q 569 626 606 581 q 465 672 532 672 m 647 662 l 725 1055 l 850 1055 l 644 0 l 519 0 l 538 95 q 438 9 494 38 q 314 -20 382 -20 q 142 51 203 -20 q 81 250 81 122 q 108 445 81 347 q 182 616 135 543 q 301 737 232 696 q 454 777 370 777 q 570 748 520 777 q 647 662 619 718 "},"Â¨":{"x_min":295.6875,"x_max":724.96875,"ha":836,"o":"m 322 1053 l 459 1053 l 433 916 l 295 916 l 322 1053 m 587 1053 l 724 1053 l 698 916 l 560 916 l 587 1053 "},"Ã”":{"x_min":56,"x_max":781,"ha":836,"o":"m 340 91 q 447 125 398 91 q 528 224 496 160 q 609 463 578 323 q 641 731 641 602 q 605 874 641 828 q 495 920 569 920 q 389 885 437 920 q 309 786 340 850 q 226 547 257 686 q 195 280 195 409 q 230 137 195 183 q 340 91 266 91 m 781 691 q 765 529 781 617 q 721 349 750 441 q 679 237 701 287 q 630 148 656 188 q 496 20 570 61 q 324 -20 422 -20 q 121 63 187 -20 q 56 320 56 146 q 70 482 56 396 q 114 661 85 569 q 156 773 133 723 q 205 862 179 822 q 339 990 265 949 q 511 1031 413 1031 q 714 947 648 1031 q 781 691 781 864 m 472 1289 l 617 1289 l 724 1109 l 634 1109 l 539 1229 l 397 1109 l 294 1109 l 472 1289 "},"E":{"x_min":35.9375,"x_max":833.46875,"ha":836,"o":"m 233 1013 l 833 1013 l 811 898 l 347 898 l 288 597 l 731 597 l 710 482 l 266 482 l 195 115 l 672 115 l 649 0 l 35 0 l 233 1013 "},"Y":{"x_min":132.25,"x_max":914.171875,"ha":836,"o":"m 132 1013 l 269 1013 l 429 571 l 766 1013 l 914 1013 l 483 454 l 396 0 l 255 0 l 344 454 l 132 1013 "},"\"":{"x_min":229,"x_max":607,"ha":836,"o":"m 607 1012 l 607 636 l 489 636 l 489 1012 l 607 1012 m 347 1012 l 347 636 l 229 636 l 229 1012 l 347 1012 "},"â€¹":{"x_min":209.546875,"x_max":594.75,"ha":836,"o":"m 594 718 l 565 575 l 327 396 l 495 215 l 473 95 l 209 379 l 221 434 l 594 718 "},"Ë™":{"x_min":427.921875,"x_max":594.75,"ha":836,"o":"m 455 1052 l 594 1052 l 566 914 l 427 914 l 455 1052 "},"Ãª":{"x_min":66,"x_max":763,"ha":836,"o":"m 635 447 q 640 477 639 465 q 642 499 642 489 q 597 626 642 581 q 475 672 553 672 q 323 611 392 672 q 224 447 254 550 l 635 447 m 650 38 q 511 -5 579 9 q 374 -20 444 -20 q 144 55 223 -20 q 66 276 66 131 q 106 483 66 382 q 219 659 147 585 q 343 748 275 717 q 485 779 411 779 q 687 701 611 779 q 763 494 763 623 q 759 437 763 471 q 748 350 756 402 l 201 350 q 195 310 197 328 q 193 279 193 292 q 245 135 193 184 q 396 85 297 85 q 527 105 456 85 q 675 162 597 124 l 650 38 m 485 1110 l 585 1110 l 696 856 l 606 856 l 526 1019 l 374 856 l 268 856 l 485 1110 "},"Ã�":{"x_min":38.65625,"x_max":797.53125,"ha":836,"o":"m 234 1013 l 797 1013 l 775 898 l 562 898 l 410 115 l 623 115 l 601 0 l 38 0 l 61 115 l 273 115 l 425 898 l 212 898 l 234 1013 m 612 1269 l 750 1269 l 723 1131 l 585 1131 l 612 1269 m 347 1269 l 485 1269 l 457 1131 l 320 1131 l 347 1269 "},"â€ž":{"x_min":-10.84375,"x_max":615.09375,"ha":836,"o":"m 133 205 l 304 205 l 278 64 l 92 -195 l -10 -195 l 105 64 l 133 205 m 444 205 l 615 205 l 588 64 l 404 -195 l 299 -195 l 416 64 l 444 205 "},"Ã‚":{"x_min":-71.890625,"x_max":729.03125,"ha":836,"o":"m 498 899 l 251 374 l 543 374 l 498 899 m 433 1012 l 600 1012 l 712 0 l 576 0 l 552 264 l 200 264 l 75 0 l -71 0 l 433 1012 m 477 1289 l 621 1289 l 729 1109 l 638 1109 l 544 1229 l 402 1109 l 299 1109 l 477 1289 "},"Ã�":{"x_min":38.65625,"x_max":797.53125,"ha":836,"o":"m 234 1013 l 797 1013 l 775 898 l 562 898 l 410 115 l 623 115 l 601 0 l 38 0 l 61 115 l 273 115 l 425 898 l 212 898 l 234 1013 m 604 1288 l 745 1288 l 537 1109 l 428 1109 l 604 1288 "},"Â´":{"x_min":389.953125,"x_max":763.625,"ha":836,"o":"m 615 1111 l 763 1111 l 495 856 l 389 856 l 615 1111 "},"Ã¬":{"x_min":41.375,"x_max":680.875,"ha":836,"o":"m 242 760 l 562 760 l 433 97 l 680 97 l 661 0 l 41 0 l 61 97 l 308 97 l 417 663 l 223 663 l 242 760 m 421 1111 l 555 856 l 458 856 l 287 1111 l 421 1111 "},"Â±":{"x_min":60,"x_max":777,"ha":836,"o":"m 60 115 l 777 115 l 777 0 l 60 0 l 60 115 m 475 794 l 475 571 l 777 571 l 777 456 l 475 456 l 475 230 l 361 230 l 361 456 l 60 456 l 60 571 l 361 571 l 361 794 l 475 794 "},"Ãš":{"x_min":54,"x_max":834.625,"ha":836,"o":"m 77 388 l 198 1012 l 336 1012 l 214 388 q 209 360 213 379 q 189 215 189 255 q 225 122 189 153 q 337 91 262 91 q 439 110 397 91 q 512 171 481 129 q 542 243 527 192 q 576 388 557 295 l 696 1012 l 834 1012 l 713 388 q 653 170 685 239 q 568 57 620 100 q 458 0 519 20 q 324 -20 396 -20 q 124 41 194 -20 q 54 214 54 102 q 59 282 54 239 q 77 388 65 325 m 602 1288 l 743 1288 l 535 1109 l 427 1109 l 602 1288 "},"|":{"x_min":359,"x_max":476,"ha":836,"o":"m 476 1061 l 476 -328 l 359 -328 l 359 1061 l 476 1061 "},"Â§":{"x_min":67.390625,"x_max":724.65625,"ha":836,"o":"m 724 986 l 702 875 q 607 914 654 900 q 521 928 561 928 q 406 894 451 928 q 362 812 362 861 q 453 698 362 759 q 485 676 474 684 l 544 636 q 657 538 628 578 q 686 452 686 498 q 641 322 686 383 q 519 225 596 261 q 561 171 547 201 q 575 103 575 140 q 492 -69 575 -2 q 275 -136 410 -136 q 175 -126 227 -136 q 67 -96 123 -116 l 89 12 q 188 -24 140 -11 q 278 -38 237 -38 q 399 -6 354 -38 q 445 78 445 25 q 320 229 445 145 l 312 235 l 262 269 q 150 365 177 327 q 123 452 123 402 q 166 575 123 517 q 289 676 210 633 q 249 728 262 701 q 237 791 237 755 q 318 958 237 892 q 525 1025 399 1025 q 623 1015 574 1025 q 724 986 673 1006 m 459 272 q 546 344 516 307 q 576 419 576 382 q 539 493 576 455 q 403 595 503 531 l 349 629 q 264 556 293 594 q 236 481 236 518 q 264 414 236 446 q 378 325 293 381 l 459 272 "},"Ã�":{"x_min":132.25,"x_max":914.171875,"ha":836,"o":"m 132 1013 l 269 1013 l 429 571 l 766 1013 l 914 1013 l 483 454 l 396 0 l 255 0 l 344 454 l 132 1013 m 604 1288 l 745 1288 l 537 1109 l 428 1109 l 604 1288 "},"b":{"x_min":39.859375,"x_max":752,"ha":836,"o":"m 365 85 q 468 116 422 85 q 546 205 514 146 q 598 347 579 268 q 618 499 618 426 q 583 629 618 586 q 480 673 549 673 q 378 641 424 673 q 296 550 331 610 q 244 413 264 492 q 225 259 225 334 q 261 130 225 176 q 365 85 297 85 m 294 662 q 392 747 336 718 q 516 777 447 777 q 690 706 628 777 q 752 510 752 636 q 724 314 752 412 q 647 144 696 217 q 521 23 595 66 q 362 -20 446 -20 q 251 9 296 -20 q 182 95 206 38 l 165 0 l 39 0 l 245 1055 l 370 1055 l 294 662 "},"q":{"x_min":66,"x_max":777.140625,"ha":836,"o":"m 524 95 q 427 9 483 38 q 301 -19 371 -19 q 128 50 190 -19 q 66 247 66 120 q 93 442 66 343 q 170 616 121 540 q 292 737 221 696 q 451 778 362 778 q 564 749 518 778 q 634 662 610 720 l 652 760 l 777 760 l 574 -289 l 449 -289 l 524 95 m 452 672 q 348 642 394 672 q 271 554 302 612 q 219 411 238 490 q 200 259 200 332 q 234 129 200 172 q 337 86 268 86 q 439 116 392 86 q 520 206 486 147 q 572 344 552 264 q 592 499 592 423 q 555 627 592 583 q 452 672 519 672 "},"Ã–":{"x_min":56,"x_max":781,"ha":836,"o":"m 340 91 q 447 125 398 91 q 528 224 496 160 q 609 463 578 323 q 641 731 641 602 q 605 874 641 828 q 495 920 569 920 q 389 885 437 920 q 309 786 340 850 q 226 547 257 686 q 195 280 195 409 q 230 137 195 183 q 340 91 266 91 m 781 691 q 765 529 781 617 q 721 349 750 441 q 679 237 701 287 q 630 148 656 188 q 496 20 570 61 q 324 -20 422 -20 q 121 63 187 -20 q 56 320 56 146 q 70 482 56 396 q 114 661 85 569 q 156 773 133 723 q 205 862 179 822 q 339 990 265 949 q 511 1031 413 1031 q 714 947 648 1031 q 781 691 781 864 m 603 1268 l 741 1268 l 714 1130 l 577 1130 l 603 1268 m 338 1268 l 476 1268 l 448 1130 l 311 1130 l 338 1268 "},"z":{"x_min":52.890625,"x_max":768.359375,"ha":836,"o":"m 216 760 l 768 760 l 745 645 l 213 100 l 640 100 l 620 0 l 52 0 l 75 114 l 606 660 l 197 660 l 216 760 "},"â„¢":{"x_min":0,"x_max":763,"ha":836,"o":"m 297 1013 l 297 949 l 187 949 l 187 620 l 110 620 l 110 949 l 0 949 l 0 1013 l 297 1013 m 469 1013 l 562 839 l 646 1013 l 763 1013 l 763 621 l 686 621 l 686 947 l 580 744 l 543 744 l 431 947 l 431 621 l 354 621 l 354 1013 l 469 1013 "},"Ã£":{"x_min":49,"x_max":755.3125,"ha":836,"o":"m 469 381 q 349 375 388 381 q 280 358 309 370 q 206 298 234 340 q 179 207 179 256 q 213 117 179 151 q 308 84 248 84 q 481 155 408 84 q 580 353 554 227 l 585 381 l 469 381 m 720 432 l 636 0 l 511 0 l 532 111 q 417 14 484 48 q 276 -20 351 -20 q 111 36 173 -20 q 49 186 49 93 q 153 399 49 319 q 437 479 258 479 l 604 479 l 612 520 q 614 533 613 526 q 615 552 615 540 q 572 641 615 610 q 450 672 529 672 q 324 654 391 672 q 181 602 256 637 l 205 724 q 344 764 278 751 q 470 777 410 777 q 666 722 596 777 q 737 568 737 666 q 732 511 737 546 q 720 432 728 475 m 505 933 l 473 966 q 448 985 460 979 q 425 991 436 991 q 380 965 396 991 q 359 888 364 940 l 274 888 q 324 1029 286 980 q 423 1079 363 1079 q 475 1068 452 1079 q 524 1031 499 1057 l 556 999 q 581 979 570 985 q 604 974 592 974 q 648 1000 631 974 q 670 1079 665 1026 l 755 1079 q 705 935 743 985 q 606 886 667 886 q 554 895 577 886 q 505 933 532 905 "},"Ã¦":{"x_min":-32,"x_max":823,"ha":836,"o":"m 329 299 l 339 348 l 306 348 q 186 337 221 348 q 127 300 150 326 q 94 244 106 278 q 83 177 83 211 q 109 109 83 136 q 175 83 135 83 q 270 128 236 83 q 329 299 305 173 m 693 445 l 704 495 q 710 532 708 513 q 712 573 712 551 q 688 648 712 621 q 625 675 665 675 q 533 631 569 675 q 481 500 497 588 l 470 445 l 693 445 m 788 348 l 452 348 q 434 248 439 286 q 428 192 428 211 q 461 109 428 139 q 552 80 494 80 q 647 99 599 80 q 732 153 696 119 l 709 36 q 624 -5 669 9 q 530 -20 579 -20 q 411 8 459 -20 q 347 88 364 36 q 268 7 316 34 q 157 -20 220 -20 q 19 29 70 -20 q -32 162 -32 78 q 49 371 -32 297 q 282 445 131 445 l 362 445 l 374 504 q 378 533 376 518 q 379 565 379 547 q 350 646 379 617 q 269 675 322 675 q 191 660 236 675 q 95 617 146 645 l 118 731 q 219 766 172 754 q 304 778 266 778 q 399 755 359 778 q 460 690 439 733 q 542 755 494 732 q 643 778 589 778 q 774 725 725 778 q 823 584 823 673 q 817 514 823 557 q 799 409 811 471 l 788 348 "},"Â®":{"x_min":0,"x_max":836,"ha":836,"o":"m 407 746 q 555 712 506 746 q 604 611 604 679 q 574 531 604 562 q 490 490 544 499 q 522 464 503 486 q 568 401 542 441 l 645 276 l 548 276 l 476 393 q 422 461 442 447 q 371 476 401 476 l 334 476 l 334 276 l 246 276 l 246 746 l 407 746 m 403 689 l 334 689 l 334 532 l 403 532 q 488 550 463 532 q 514 611 514 568 q 488 671 514 653 q 403 689 463 689 m 417 921 q 577 890 503 921 q 712 798 651 859 q 804 662 773 737 q 836 502 836 588 q 805 344 836 417 q 712 208 774 270 q 577 115 650 146 q 417 85 503 85 q 259 115 332 85 q 123 208 185 146 q 30 344 61 270 q 0 502 0 417 q 31 662 0 588 q 123 798 62 737 q 258 890 184 859 q 417 921 332 921 m 417 851 q 284 825 345 851 q 172 749 222 800 q 95 636 121 699 q 69 502 69 574 q 95 369 69 432 q 172 257 121 307 q 284 179 223 205 q 417 154 346 154 q 550 179 489 154 q 663 257 612 205 q 740 369 715 308 q 766 502 766 431 q 740 636 766 574 q 663 749 714 699 q 551 825 612 800 q 417 851 490 851 "},"Ã‰":{"x_min":35.9375,"x_max":833.46875,"ha":836,"o":"m 233 1013 l 833 1013 l 811 898 l 347 898 l 288 597 l 731 597 l 710 482 l 266 482 l 195 115 l 672 115 l 649 0 l 35 0 l 233 1013 m 630 1288 l 771 1288 l 563 1109 l 455 1109 l 630 1288 "},"~":{"x_min":60,"x_max":777,"ha":836,"o":"m 777 530 l 777 411 q 677 352 726 371 q 575 334 629 334 q 437 368 514 334 q 415 378 422 375 q 328 408 363 400 q 258 417 293 417 q 157 396 205 417 q 60 334 109 376 l 60 452 q 162 511 112 493 q 268 530 211 530 q 338 522 304 530 q 422 493 372 514 q 444 483 430 490 q 586 446 523 446 q 680 466 633 446 q 777 530 726 487 "},"Â³":{"x_min":194.734375,"x_max":667,"ha":836,"o":"m 523 757 q 598 718 572 749 q 625 639 625 687 q 554 496 625 550 q 365 443 484 443 q 277 450 320 443 q 194 470 234 457 l 211 553 q 291 524 256 533 q 360 516 326 516 q 480 547 436 516 q 525 631 525 578 q 496 698 525 676 q 407 720 467 720 l 358 720 l 372 792 l 421 792 q 527 818 487 792 q 567 889 567 845 q 537 940 567 923 q 450 958 508 958 q 387 950 421 958 q 312 928 353 943 l 327 1007 q 417 1024 375 1018 q 495 1031 458 1031 q 622 997 578 1031 q 667 901 667 963 q 628 808 667 848 q 523 757 589 769 "},"Â¡":{"x_min":263.8125,"x_max":598.828125,"ha":836,"o":"m 565 840 l 427 840 l 461 1012 l 598 1012 l 565 840 m 401 0 l 263 0 l 351 444 l 410 686 l 520 686 l 487 444 l 401 0 "},"[":{"x_min":179.03125,"x_max":708.015625,"ha":836,"o":"m 421 1055 l 708 1055 l 689 958 l 526 958 l 323 -87 l 486 -87 l 467 -184 l 179 -184 l 421 1055 "},"L":{"x_min":52.890625,"x_max":701.234375,"ha":836,"o":"m 250 1012 l 387 1012 l 212 115 l 701 115 l 678 0 l 52 0 l 250 1012 "}," ":{"x_min":0,"x_max":0,"ha":836},"âˆ‘":{"x_min":97,"x_max":736,"ha":836,"o":"m 225 -203 l 736 -203 l 736 -296 l 97 -296 l 97 -233 l 469 389 l 97 964 l 97 1029 l 722 1029 l 722 934 l 225 934 l 578 389 l 225 -203 "},"%":{"x_min":22,"x_max":813,"ha":836,"o":"m 472 216 q 507 127 472 163 q 595 92 542 92 q 683 128 647 92 q 720 216 720 164 q 683 305 720 268 q 595 342 647 342 q 507 306 542 342 q 472 216 472 270 m 380 216 q 442 371 380 308 q 595 434 504 434 q 677 417 638 434 q 747 370 716 401 q 796 298 779 338 q 813 216 813 259 q 749 63 813 126 q 595 0 686 0 q 441 62 503 0 q 380 216 380 124 m 81 315 l 58 380 l 764 664 l 791 599 l 81 315 m 114 754 q 149 665 114 701 q 238 630 185 630 q 327 666 290 630 q 364 754 364 702 q 327 842 364 806 q 238 879 290 879 q 150 843 186 879 q 114 754 114 807 m 22 754 q 84 908 22 845 q 238 971 146 971 q 321 954 282 971 q 392 907 361 938 q 439 837 422 877 q 456 754 456 798 q 392 600 456 663 q 238 538 329 538 q 84 600 146 538 q 22 754 22 662 "},"P":{"x_min":34.109375,"x_max":816,"ha":836,"o":"m 346 900 l 272 520 l 431 520 q 610 584 543 520 q 677 757 677 649 q 634 865 677 830 q 504 900 592 900 l 346 900 m 231 1013 l 529 1013 q 742 950 669 1013 q 816 770 816 888 q 707 504 816 601 q 409 407 599 407 l 251 407 l 171 0 l 34 0 l 231 1013 "},"âˆ�":{"x_min":103,"x_max":733,"ha":836,"o":"m 103 -295 l 103 1030 l 733 1030 l 733 -295 l 628 -295 l 628 940 l 208 940 l 208 -295 l 103 -295 "},"Ã€":{"x_min":-71.890625,"x_max":712.75,"ha":836,"o":"m 498 899 l 251 374 l 543 374 l 498 899 m 433 1012 l 600 1012 l 712 0 l 576 0 l 552 264 l 200 264 l 75 0 l -71 0 l 433 1012 m 497 1288 l 596 1109 l 502 1109 l 373 1288 l 497 1288 "},"_":{"x_min":0,"x_max":694,"ha":836,"o":"m 694 -274 l 694 -328 l 0 -328 l 0 -274 l 694 -274 "},"Ã±":{"x_min":56.515625,"x_max":752.484375,"ha":836,"o":"m 728 470 l 637 0 l 512 0 l 603 471 q 605 480 604 473 q 616 555 616 528 q 584 639 616 610 q 493 669 552 669 q 347 605 407 669 q 264 429 287 542 l 181 0 l 56 0 l 205 759 l 329 759 l 308 645 q 418 744 358 710 q 544 778 477 778 q 690 728 638 778 q 743 591 743 679 q 739 537 743 569 q 728 470 735 505 m 502 932 l 470 966 q 445 985 457 979 q 422 991 433 991 q 377 965 393 991 q 356 887 361 940 l 271 887 q 321 1029 283 979 q 420 1079 360 1079 q 472 1068 449 1079 q 521 1031 495 1057 l 553 999 q 578 979 567 985 q 601 974 589 974 q 645 1000 628 974 q 667 1079 662 1026 l 752 1079 q 702 935 740 985 q 603 886 664 886 q 551 895 574 886 q 502 932 529 905 "},"+":{"x_min":60,"x_max":777,"ha":836,"o":"m 475 795 l 475 493 l 777 493 l 777 378 l 475 378 l 475 77 l 361 77 l 361 378 l 60 378 l 60 493 l 361 493 l 361 795 l 475 795 "},"â€š":{"x_min":137.671875,"x_max":453.015625,"ha":836,"o":"m 282 205 l 453 205 l 425 64 l 241 -195 l 137 -195 l 254 64 l 282 205 "},"Â½":{"x_min":32.0625,"x_max":777,"ha":836,"o":"m 75 634 l 215 634 l 294 1048 l 137 1020 l 152 1099 l 314 1125 l 407 1125 l 311 634 l 450 634 l 436 559 l 61 559 l 75 634 m 47 342 l 32 415 l 750 590 l 768 516 l 47 342 m 438 -106 l 706 -106 l 690 -183 l 312 -183 l 327 -108 l 442 -13 l 464 4 q 677 247 677 176 q 651 303 677 282 q 584 324 626 324 q 508 311 549 324 q 410 271 466 298 l 426 357 q 526 385 483 376 q 604 395 568 395 q 730 357 684 395 q 777 255 777 319 q 567 -3 777 161 l 553 -13 l 438 -106 "},"Ã†":{"x_min":-98.328125,"x_max":886.375,"ha":836,"o":"m 886 1013 l 863 898 l 634 898 l 576 597 l 784 597 l 762 482 l 554 482 l 482 115 l 723 115 l 701 0 l 333 0 l 384 260 l 145 260 l 26 0 l -98 0 l 376 1013 l 886 1013 m 438 898 l 197 374 l 406 374 l 508 898 l 438 898 "},"Ã‹":{"x_min":35.9375,"x_max":833.46875,"ha":836,"o":"m 233 1013 l 833 1013 l 811 898 l 347 898 l 288 597 l 731 597 l 710 482 l 266 482 l 195 115 l 672 115 l 649 0 l 35 0 l 233 1013 m 638 1269 l 776 1269 l 750 1131 l 612 1131 l 638 1269 m 373 1269 l 512 1269 l 484 1131 l 347 1131 l 373 1269 "},"'":{"x_min":358,"x_max":476,"ha":836,"o":"m 476 1012 l 476 636 l 358 636 l 358 1012 l 476 1012 "},"Âª":{"x_min":151.171875,"x_max":703,"ha":836,"o":"m 494 749 q 347 721 394 749 q 300 636 300 694 q 324 576 300 598 q 390 554 349 554 q 516 599 465 554 q 585 729 567 645 l 589 749 l 494 749 m 696 790 l 637 486 l 540 486 l 555 562 q 469 496 519 519 q 360 473 419 473 q 243 513 286 473 q 200 623 200 554 q 275 772 200 718 q 486 827 351 827 l 604 827 q 604 833 604 828 q 607 860 607 851 q 577 930 607 908 q 482 953 547 953 q 389 941 435 953 q 294 906 343 930 l 310 993 q 410 1021 361 1012 q 504 1031 460 1031 q 653 988 604 1031 q 703 860 703 946 q 701 827 703 844 q 696 790 699 810 m 166 401 l 625 401 l 609 318 l 151 318 l 166 401 "},"Ë›":{"x_min":157,"x_max":407.234375,"ha":836,"o":"m 260 0 l 340 0 q 277 -74 299 -39 q 256 -134 256 -108 q 271 -172 256 -159 q 318 -185 287 -185 q 363 -179 340 -185 q 407 -164 385 -174 l 390 -254 q 343 -264 367 -261 q 296 -268 319 -268 q 193 -240 230 -268 q 157 -165 157 -213 q 182 -87 157 -128 q 260 0 207 -47 "},"Ã°":{"x_min":81,"x_max":766.265625,"ha":836,"o":"m 590 899 q 711 682 673 783 q 750 479 750 581 q 724 297 750 384 q 651 140 699 210 q 522 20 599 61 q 350 -20 445 -20 q 150 52 219 -20 q 81 263 81 125 q 106 431 81 348 q 180 585 132 514 q 310 702 232 660 q 479 744 388 744 q 523 740 491 744 q 546 738 538 739 q 515 793 533 764 q 469 862 497 822 l 268 798 l 247 860 l 433 919 l 337 1055 l 482 1055 l 552 956 l 747 1016 l 766 953 l 590 899 m 592 614 q 540 633 567 627 q 483 640 513 640 q 287 534 362 640 q 212 256 212 428 q 251 130 212 175 q 361 85 290 85 q 546 194 474 85 q 618 477 618 303 q 611 555 618 521 q 592 614 605 589 "},"T":{"x_min":108.5,"x_max":904,"ha":836,"o":"m 130 1012 l 904 1012 l 881 897 l 563 897 l 389 0 l 251 0 l 426 897 l 108 897 l 130 1012 "},"Ãž":{"x_min":34.984375,"x_max":786,"ha":836,"o":"m 221 248 l 172 0 l 34 0 l 232 1012 l 370 1012 l 335 826 l 498 826 q 712 766 639 826 q 786 593 786 706 q 677 340 786 433 q 378 248 568 248 l 221 248 m 313 719 l 241 354 l 400 354 q 578 416 511 354 q 646 582 646 479 q 603 685 646 652 q 473 719 561 719 l 313 719 "},"j":{"x_min":2.71875,"x_max":669.359375,"ha":836,"o":"m 337 -13 l 467 663 l 252 663 l 271 760 l 612 760 l 462 -13 q 366 -223 434 -158 q 174 -289 297 -289 l 2 -289 l 23 -183 l 181 -183 q 283 -142 246 -183 q 337 -13 320 -102 m 544 1055 l 669 1055 l 638 897 l 514 897 l 544 1055 "},"1":{"x_min":83.421875,"x_max":663.921875,"ha":836,"o":"m 105 115 l 318 115 l 467 888 l 229 837 l 252 962 l 491 1012 l 629 1012 l 454 115 l 663 115 l 641 0 l 83 0 l 105 115 "},"â€º":{"x_min":214.984375,"x_max":598.828125,"ha":836,"o":"m 214 95 l 244 238 l 482 416 l 312 598 l 336 718 l 598 434 l 587 379 l 214 95 "},"Ã¤":{"x_min":49,"x_max":737,"ha":836,"o":"m 469 381 q 349 375 388 381 q 280 358 309 370 q 206 298 234 340 q 179 207 179 256 q 213 117 179 151 q 308 84 248 84 q 481 155 408 84 q 580 353 554 227 l 585 381 l 469 381 m 720 432 l 636 0 l 511 0 l 532 111 q 417 14 484 48 q 276 -20 351 -20 q 111 36 173 -20 q 49 186 49 93 q 153 399 49 319 q 437 479 258 479 l 604 479 l 612 520 q 614 533 613 526 q 615 552 615 540 q 572 641 615 610 q 450 672 529 672 q 324 654 391 672 q 181 602 256 637 l 205 724 q 344 764 278 751 q 470 777 410 777 q 666 722 596 777 q 737 568 737 666 q 732 511 737 546 q 720 432 728 475 m 324 1052 l 462 1052 l 435 915 l 298 915 l 324 1052 m 589 1052 l 727 1052 l 701 915 l 563 915 l 589 1052 "},"<":{"x_min":60,"x_max":777,"ha":836,"o":"m 777 651 l 200 434 l 777 219 l 777 95 l 60 379 l 60 491 l 777 775 l 777 651 "},"Â£":{"x_min":-5.421875,"x_max":833.46875,"ha":836,"o":"m 833 991 l 808 867 q 730 911 771 896 q 646 927 689 927 q 500 869 552 927 q 422 675 448 811 l 393 528 l 644 528 l 625 431 l 373 431 l 312 115 l 676 115 l 654 0 l -5 0 l 16 115 l 177 115 l 238 431 l 104 431 l 122 528 l 257 528 l 288 689 q 412 948 323 865 q 655 1031 501 1031 q 740 1021 696 1031 q 833 991 784 1011 "},"Â¹":{"x_min":236,"x_max":625.265625,"ha":836,"o":"m 250 528 l 389 528 l 469 942 l 312 914 l 327 993 l 488 1019 l 581 1019 l 486 528 l 625 528 l 611 453 l 236 453 l 250 528 "},"t":{"x_min":132.46875,"x_max":762.3125,"ha":836,"o":"m 520 975 l 479 760 l 762 760 l 743 663 l 459 663 l 379 250 q 373 212 375 230 q 371 180 371 195 q 397 117 371 135 q 493 100 423 100 l 633 100 l 613 0 l 462 0 q 296 37 349 0 q 243 155 243 75 q 245 195 243 172 q 254 250 248 218 l 335 663 l 132 663 l 151 760 l 354 760 l 396 975 l 520 975 "},"Â¬":{"x_min":60.09375,"x_max":777,"ha":836,"o":"m 60 585 l 777 585 l 777 251 l 663 251 l 663 468 l 60 468 l 60 585 "},"Ã¹":{"x_min":85,"x_max":768.453125,"ha":836,"o":"m 97 289 l 187 760 l 312 760 l 221 289 q 213 241 216 264 q 211 202 211 218 q 242 119 211 148 q 331 91 274 91 q 477 153 417 91 q 559 331 537 216 l 643 760 l 768 760 l 620 0 l 495 0 l 518 114 q 408 14 468 47 q 276 -18 348 -18 q 136 31 188 -18 q 85 167 85 81 q 88 225 85 193 q 97 289 91 256 m 438 1111 l 572 856 l 475 856 l 304 1111 l 438 1111 "},"W":{"x_min":77,"x_max":933.375,"ha":836,"o":"m 77 1013 l 198 1013 l 198 192 l 390 735 l 538 735 l 538 190 l 799 1013 l 933 1013 l 587 0 l 445 0 l 445 590 l 183 0 l 77 0 l 77 1013 "},"Ã¯":{"x_min":41.375,"x_max":705.296875,"ha":836,"o":"m 242 760 l 562 760 l 433 97 l 680 97 l 661 0 l 41 0 l 61 97 l 308 97 l 417 663 l 223 663 l 242 760 m 302 1053 l 440 1053 l 413 916 l 276 916 l 302 1053 m 567 1053 l 705 1053 l 678 916 l 541 916 l 567 1053 "},">":{"x_min":60,"x_max":777,"ha":836,"o":"m 60 651 l 60 775 l 777 491 l 777 379 l 60 95 l 60 219 l 636 434 l 60 651 "},"v":{"x_min":123.421875,"x_max":823.296875,"ha":836,"o":"m 123 760 l 244 760 l 348 111 l 689 760 l 823 760 l 406 0 l 245 0 l 123 760 "},"Ã»":{"x_min":85,"x_max":768.453125,"ha":836,"o":"m 97 289 l 187 760 l 312 760 l 221 289 q 213 241 216 264 q 211 202 211 218 q 242 119 211 148 q 331 91 274 91 q 477 153 417 91 q 559 331 537 216 l 643 760 l 768 760 l 620 0 l 495 0 l 518 114 q 408 14 468 47 q 276 -18 348 -18 q 136 31 188 -18 q 85 167 85 81 q 88 225 85 193 q 97 289 91 256 m 483 1111 l 583 1111 l 694 856 l 604 856 l 525 1019 l 372 856 l 266 856 l 483 1111 "},"Ã’":{"x_min":56,"x_max":781,"ha":836,"o":"m 340 91 q 447 125 398 91 q 528 224 496 160 q 609 463 578 323 q 641 731 641 602 q 605 874 641 828 q 495 920 569 920 q 389 885 437 920 q 309 786 340 850 q 226 547 257 686 q 195 280 195 409 q 230 137 195 183 q 340 91 266 91 m 781 691 q 765 529 781 617 q 721 349 750 441 q 679 237 701 287 q 630 148 656 188 q 496 20 570 61 q 324 -20 422 -20 q 121 63 187 -20 q 56 320 56 146 q 70 482 56 396 q 114 661 85 569 q 156 773 133 723 q 205 862 179 822 q 339 990 265 949 q 511 1031 413 1031 q 714 947 648 1031 q 781 691 781 864 m 492 1288 l 592 1109 l 497 1109 l 368 1288 l 492 1288 "},"&":{"x_min":-13,"x_max":807.453125,"ha":836,"o":"m 384 614 l 593 236 q 660 351 635 281 q 693 515 685 420 l 807 515 q 754 309 795 401 q 640 149 713 218 l 724 -1 l 589 -1 l 549 76 q 416 3 484 27 q 278 -20 349 -20 q 66 52 146 -20 q -13 243 -13 125 q 54 455 -13 357 q 249 623 122 553 q 219 695 229 658 q 210 769 210 731 q 293 958 210 887 q 517 1030 376 1030 q 603 1021 561 1030 q 684 998 645 1013 l 660 874 q 590 913 631 900 q 497 926 549 926 q 374 887 420 926 q 328 784 328 848 q 342 707 328 752 q 384 614 357 663 m 293 538 q 155 422 202 489 q 108 276 108 355 q 166 141 108 195 q 311 87 224 87 q 405 106 355 87 q 502 162 454 125 l 293 538 "},"Ë�":{"x_min":298.390625,"x_max":830.75,"ha":836,"o":"m 466 1111 l 594 1111 l 389 856 l 298 856 l 466 1111 m 697 1111 l 830 1111 l 611 856 l 519 856 l 697 1111 "},"Ã�":{"x_min":-5.046875,"x_max":767,"ha":836,"o":"m 220 113 q 421 155 345 113 q 543 293 497 197 q 603 479 580 371 q 627 677 627 587 q 571 848 627 796 q 384 900 515 900 l 307 900 l 245 582 l 426 582 l 407 481 l 226 481 l 154 113 l 220 113 m 397 1013 q 675 928 583 1013 q 767 673 767 844 q 738 447 767 563 q 661 240 709 330 q 485 55 591 110 q 200 0 380 0 l -5 0 l 87 481 l 1 481 l 21 582 l 108 582 l 192 1013 l 397 1013 "},"I":{"x_min":38.65625,"x_max":797.53125,"ha":836,"o":"m 234 1013 l 797 1013 l 775 898 l 562 898 l 410 115 l 623 115 l 601 0 l 38 0 l 61 115 l 273 115 l 425 898 l 212 898 l 234 1013 "},"G":{"x_min":53,"x_max":797.890625,"ha":836,"o":"m 657 64 q 528 1 598 22 q 379 -20 458 -20 q 137 71 221 -20 q 53 331 53 162 q 64 461 53 392 q 97 605 75 530 q 152 749 120 684 q 222 858 184 813 q 383 988 295 946 q 583 1031 470 1031 q 691 1016 637 1031 q 797 975 745 1002 l 770 835 q 677 898 726 877 q 574 920 629 920 q 449 891 507 920 q 344 808 390 863 q 288 720 315 773 q 241 601 262 667 q 206 456 218 524 q 195 333 195 388 q 248 154 195 217 q 400 91 302 91 q 483 103 446 91 q 544 139 519 116 l 596 406 l 449 406 l 469 519 l 747 519 l 657 64 "},"`":{"x_min":307.203125,"x_max":575.09375,"ha":836,"o":"m 441 1111 l 575 856 l 478 856 l 307 1111 l 441 1111 "},"Â·":{"x_min":308.5625,"x_max":519.484375,"ha":836,"o":"m 347 586 l 519 586 l 479 379 l 308 379 l 347 586 "},"r":{"x_min":147.15625,"x_max":826.6875,"ha":836,"o":"m 802 603 q 732 648 772 633 q 640 663 691 663 q 449 585 528 663 q 344 372 370 507 l 271 0 l 147 0 l 294 760 l 419 760 l 391 611 q 509 735 437 692 q 673 778 581 778 q 760 765 721 778 q 826 729 799 753 l 802 603 "},"Â¿":{"x_min":97,"x_max":636.484375,"ha":836,"o":"m 444 741 l 574 741 l 554 636 q 515 528 542 573 q 412 421 487 484 l 340 361 q 259 274 283 312 q 235 198 235 236 q 272 120 235 148 q 378 93 310 93 q 498 117 431 93 q 636 185 564 141 l 611 58 q 469 0 538 19 q 331 -18 400 -18 q 162 37 228 -18 q 97 177 97 92 q 130 296 97 241 q 251 424 163 350 l 322 482 q 400 564 379 529 q 431 657 420 599 l 444 741 m 597 841 l 460 841 l 493 1013 l 631 1013 l 597 841 "},"Ã½":{"x_min":-26.453125,"x_max":830.75,"ha":836,"o":"m 533 244 q 421 48 491 171 q 279 -187 316 -138 q 189 -264 240 -239 q 73 -289 139 -289 l -26 -289 l -6 -185 l 66 -185 q 161 -153 121 -185 q 241 -45 200 -121 l 270 11 l 123 759 l 247 759 l 364 174 l 691 760 l 830 760 l 533 244 m 615 1111 l 763 1111 l 495 856 l 389 856 l 615 1111 "},"x":{"x_min":-47.46875,"x_max":819.234375,"ha":836,"o":"m 819 760 l 472 388 l 687 0 l 554 0 l 388 301 l 105 0 l -47 0 l 335 404 l 136 760 l 269 760 l 416 491 l 666 760 l 819 760 "},"Ã¨":{"x_min":66,"x_max":763,"ha":836,"o":"m 635 447 q 640 477 639 465 q 642 499 642 489 q 597 626 642 581 q 475 672 553 672 q 323 611 392 672 q 224 447 254 550 l 635 447 m 650 38 q 511 -5 579 9 q 374 -20 444 -20 q 144 55 223 -20 q 66 276 66 131 q 106 483 66 382 q 219 659 147 585 q 343 748 275 717 q 485 779 411 779 q 687 701 611 779 q 763 494 763 623 q 759 437 763 471 q 748 350 756 402 l 201 350 q 195 310 197 328 q 193 279 193 292 q 245 135 193 184 q 396 85 297 85 q 527 105 456 85 q 675 162 597 124 l 650 38 m 440 1110 l 574 856 l 477 856 l 306 1110 l 440 1110 "},"Âº":{"x_min":151.03125,"x_max":722,"ha":836,"o":"m 429 473 q 266 534 325 473 q 208 702 208 595 q 230 821 208 761 q 290 927 252 882 q 386 1004 331 978 q 502 1031 441 1031 q 663 969 604 1031 q 722 800 722 907 q 700 680 722 740 q 641 576 678 620 q 545 499 599 525 q 429 473 490 473 m 314 703 q 347 591 314 632 q 440 551 381 551 q 565 624 512 551 q 618 800 618 697 q 584 912 618 871 q 491 953 550 953 q 366 880 419 953 q 314 703 314 807 m 166 401 l 625 401 l 609 318 l 151 318 l 166 401 "},"Ã˜":{"x_min":9.25,"x_max":813.21875,"ha":836,"o":"m 218 154 q 263 107 231 124 q 339 91 295 91 q 469 146 415 91 q 565 320 524 202 q 617 519 599 418 q 636 702 636 619 q 636 733 636 721 q 636 757 636 745 l 218 154 m 197 263 l 612 864 q 562 905 593 890 q 493 920 531 920 q 363 864 417 920 q 268 690 308 808 q 214 486 234 590 q 195 309 195 382 q 195 283 195 302 q 197 263 195 271 m 741 907 q 770 817 760 866 q 780 706 780 768 q 744 430 780 573 q 652 187 708 287 q 511 31 592 82 q 323 -20 430 -20 q 222 -4 268 -20 q 140 42 176 11 l 76 -47 l 9 -4 l 89 110 q 62 197 71 150 q 54 304 54 245 q 89 581 54 438 q 181 825 124 724 q 321 980 241 929 q 510 1031 402 1031 q 607 1016 562 1031 q 688 972 651 1001 l 745 1057 l 813 1014 l 741 907 "},"âˆž":{"x_min":28,"x_max":809,"ha":836,"o":"m 471 425 q 540 299 509 333 q 613 266 571 266 q 692 311 661 266 q 723 429 723 356 q 694 545 723 502 q 618 589 666 589 q 538 549 573 589 q 471 425 502 509 m 364 431 q 295 555 326 521 q 222 589 264 589 q 143 543 174 589 q 113 427 113 498 q 141 309 113 353 q 215 266 169 266 q 296 305 260 266 q 364 431 332 345 m 418 518 q 500 640 450 597 q 611 684 549 684 q 750 609 692 684 q 809 427 809 535 q 753 241 809 313 q 613 170 698 170 q 513 204 556 170 q 416 326 469 238 q 328 206 372 242 q 225 170 283 170 q 84 242 140 170 q 28 427 28 315 q 81 614 28 544 q 224 684 134 684 q 334 645 288 684 q 418 518 380 606 "},"Ã·":{"x_min":60,"x_max":777,"ha":836,"o":"m 335 268 l 501 268 l 501 102 l 335 102 l 335 268 m 335 770 l 501 770 l 501 603 l 335 603 l 335 770 m 60 493 l 777 493 l 777 378 l 60 378 l 60 493 "},"h":{"x_min":56.515625,"x_max":743,"ha":836,"o":"m 728 470 l 637 0 l 512 0 l 603 471 q 605 480 604 473 q 616 555 616 528 q 584 639 616 610 q 493 669 552 669 q 347 605 407 669 q 264 429 287 542 l 181 0 l 56 0 l 262 1055 l 386 1055 l 308 645 q 418 744 358 711 q 544 778 477 778 q 690 728 638 778 q 743 591 743 679 q 739 537 743 569 q 728 470 735 505 "},".":{"x_min":240.078125,"x_max":451.65625,"ha":836,"o":"m 280 206 l 451 206 l 410 0 l 240 0 l 280 206 "},";":{"x_min":137.671875,"x_max":544.5625,"ha":836,"o":"m 273 206 l 444 206 l 416 65 l 241 -194 l 137 -194 l 245 65 l 273 206 m 373 722 l 544 722 l 503 516 l 333 516 l 373 722 "},"f":{"x_min":179.03125,"x_max":844.328125,"ha":836,"o":"m 844 1055 l 823 951 l 682 951 q 585 922 617 951 q 539 826 552 894 l 524 759 l 786 759 l 768 662 l 507 662 l 377 0 l 252 0 l 381 662 l 179 662 l 198 759 l 400 759 l 410 811 q 502 998 436 942 q 694 1055 567 1055 l 844 1055 "},"â€œ":{"x_min":166.828125,"x_max":792.78125,"ha":836,"o":"m 648 655 l 478 655 l 503 795 l 689 1055 l 792 1055 l 676 795 l 648 655 m 337 655 l 166 655 l 193 795 l 377 1055 l 482 1055 l 364 795 l 337 655 "},"A":{"x_min":-71.890625,"x_max":712.75,"ha":836,"o":"m 498 899 l 251 374 l 543 374 l 498 899 m 433 1012 l 600 1012 l 712 0 l 576 0 l 552 264 l 200 264 l 75 0 l -71 0 l 433 1012 "},"6":{"x_min":62,"x_max":765.078125,"ha":836,"o":"m 583 402 q 543 520 583 479 q 431 562 504 562 q 265 476 332 562 q 198 262 198 391 q 239 133 198 179 q 353 87 280 87 q 517 177 451 87 q 583 402 583 268 m 765 990 l 740 864 q 655 902 701 889 q 557 916 608 916 q 341 818 426 916 q 219 528 256 721 q 328 633 265 597 q 469 669 392 669 q 655 601 589 669 q 721 409 721 534 q 693 247 721 328 q 620 110 666 167 q 499 12 567 45 q 349 -20 432 -20 q 136 59 211 -20 q 62 284 62 138 q 88 518 62 397 q 160 739 114 639 q 330 958 227 885 q 574 1031 434 1031 q 674 1020 625 1031 q 765 990 722 1010 "},"â€˜":{"x_min":314,"x_max":629.34375,"ha":836,"o":"m 484 655 l 314 655 l 341 795 l 524 1055 l 629 1055 l 512 795 l 484 655 "},"O":{"x_min":56,"x_max":781,"ha":836,"o":"m 340 91 q 447 125 398 91 q 528 224 496 160 q 609 463 578 323 q 641 731 641 602 q 605 874 641 828 q 495 920 569 920 q 389 885 437 920 q 309 786 340 850 q 226 547 257 686 q 195 280 195 409 q 230 137 195 183 q 340 91 266 91 m 781 691 q 765 529 781 617 q 721 349 750 441 q 679 237 701 287 q 630 148 656 188 q 496 20 570 61 q 324 -20 422 -20 q 121 63 187 -20 q 56 320 56 146 q 70 482 56 396 q 114 661 85 569 q 156 773 133 723 q 205 862 179 822 q 339 990 265 949 q 511 1031 413 1031 q 714 947 648 1031 q 781 691 781 864 "},"n":{"x_min":56.515625,"x_max":743,"ha":836,"o":"m 728 470 l 637 0 l 512 0 l 603 471 q 605 480 604 473 q 616 555 616 528 q 584 639 616 610 q 493 669 552 669 q 347 605 407 669 q 264 429 287 542 l 181 0 l 56 0 l 205 759 l 329 759 l 308 645 q 418 744 358 710 q 544 778 477 778 q 690 728 638 778 q 743 591 743 679 q 739 537 743 569 q 728 470 735 505 "},"3":{"x_min":-12.125,"x_max":747,"ha":836,"o":"m 516 541 q 637 471 594 527 q 681 331 681 416 q 567 76 681 172 q 263 -20 453 -20 q 121 -7 190 -20 q -12 30 51 5 l 13 166 q 139 112 75 130 q 270 95 204 95 q 470 158 394 95 q 546 322 546 221 q 497 443 546 402 q 355 484 449 484 l 251 484 l 273 597 l 377 597 q 547 648 484 597 q 611 783 611 699 q 569 883 611 851 q 440 916 527 916 q 318 902 384 916 q 176 861 253 888 l 201 987 q 350 1020 284 1010 q 473 1031 416 1031 q 673 971 600 1031 q 747 808 747 911 q 686 633 747 704 q 516 541 625 563 "},"9":{"x_min":42.59375,"x_max":746,"ha":836,"o":"m 224 608 q 263 490 224 531 q 375 449 302 449 q 540 534 473 449 q 608 748 608 620 q 567 877 608 831 q 454 924 526 924 q 290 833 356 924 q 224 608 224 742 m 42 20 l 66 146 q 151 108 105 121 q 248 95 197 95 q 464 192 379 95 q 587 482 549 289 q 477 377 540 413 q 337 342 414 342 q 151 409 216 342 q 86 603 86 477 q 113 763 86 683 q 185 900 140 843 q 306 998 238 965 q 457 1031 374 1031 q 670 951 594 1031 q 746 726 746 871 q 719 492 746 613 q 646 271 692 371 q 476 53 580 126 q 231 -20 372 -20 q 133 -9 180 -20 q 42 20 85 0 "},"l":{"x_min":210.671875,"x_max":662.171875,"ha":836,"o":"m 406 276 q 399 234 401 252 q 397 204 397 216 q 427 130 397 154 q 519 105 457 105 l 662 105 l 641 0 l 500 0 q 326 43 383 0 q 269 174 269 86 q 272 221 269 193 q 281 279 275 248 l 424 965 l 210 965 l 230 1063 l 569 1063 l 406 276 "},"Â¤":{"x_min":139.125,"x_max":746.5625,"ha":836,"o":"m 589 436 q 546 539 589 497 q 443 581 504 581 q 339 539 381 581 q 297 436 297 497 q 339 331 297 373 q 443 289 381 289 q 546 331 504 289 q 589 436 589 374 m 572 627 l 685 739 l 746 676 l 633 564 q 664 499 654 530 q 674 435 674 467 q 663 370 674 401 q 632 308 653 339 l 746 195 l 682 132 l 569 245 q 507 214 538 224 q 443 204 476 204 q 377 213 410 204 q 312 242 345 223 l 201 132 l 139 193 l 251 305 q 220 372 230 340 q 211 435 211 403 q 221 500 211 468 q 252 562 231 532 l 139 675 l 202 739 l 315 625 q 377 656 346 646 q 443 667 408 667 q 506 657 474 667 q 572 627 538 647 "},"âˆ‚":{"x_min":129,"x_max":710,"ha":836,"o":"m 570 421 q 585 535 580 480 q 591 641 591 591 q 566 773 591 729 q 492 818 541 818 q 406 778 455 818 q 333 739 358 739 q 293 753 309 739 q 277 790 277 768 q 325 865 277 832 q 443 899 374 899 q 637 793 565 899 q 710 510 710 688 q 612 132 710 282 q 369 -17 514 -17 q 197 56 266 -17 q 129 240 129 129 q 203 461 129 374 q 388 549 278 549 q 500 518 456 549 q 570 421 544 487 m 537 335 q 507 456 537 414 q 425 499 478 499 q 303 411 351 499 q 256 183 256 323 q 285 62 256 104 q 368 21 314 21 q 489 109 442 21 q 537 335 537 197 "},"4":{"x_min":16.953125,"x_max":737.171875,"ha":836,"o":"m 571 868 l 147 352 l 467 352 l 571 868 m 573 1011 l 731 1011 l 602 352 l 737 352 l 716 241 l 581 241 l 534 0 l 400 0 l 446 241 l 16 241 l 41 370 l 573 1011 "},"p":{"x_min":-1.4375,"x_max":764.5625,"ha":836,"o":"m 198 95 l 123 -289 l -1 -289 l 202 760 l 327 760 l 308 662 q 408 748 349 718 q 534 778 466 778 q 704 707 643 778 q 764 510 764 636 q 737 315 764 413 q 663 143 711 217 q 543 21 612 62 q 391 -19 474 -19 q 276 8 324 -19 q 198 95 228 37 m 385 86 q 485 116 440 86 q 561 204 531 146 q 614 344 595 266 q 633 499 633 423 q 598 629 633 586 q 494 672 563 672 q 390 641 436 672 q 311 551 343 611 q 258 414 277 491 q 240 259 240 337 q 277 131 240 176 q 385 86 315 86 "},"â€¡":{"x_min":40.015625,"x_max":769.71875,"ha":836,"o":"m 657 151 l 408 151 l 352 -133 l 234 -133 l 288 151 l 40 151 l 61 255 l 309 255 l 381 624 l 132 624 l 152 728 l 401 728 l 457 1012 l 576 1012 l 520 728 l 769 728 l 748 624 l 499 624 l 429 255 l 677 255 l 657 151 "},"Ã ":{"x_min":49,"x_max":737,"ha":836,"o":"m 469 381 q 349 375 388 381 q 280 358 309 370 q 206 298 234 340 q 179 207 179 256 q 213 117 179 151 q 308 84 248 84 q 481 155 408 84 q 580 353 554 227 l 585 381 l 469 381 m 720 432 l 636 0 l 511 0 l 532 111 q 417 14 484 48 q 276 -20 351 -20 q 111 36 173 -20 q 49 186 49 93 q 153 399 49 319 q 437 479 258 479 l 604 479 l 612 520 q 614 533 613 526 q 615 552 615 540 q 572 641 615 610 q 450 672 529 672 q 324 654 391 672 q 181 602 256 637 l 205 724 q 344 764 278 751 q 470 777 410 777 q 666 722 596 777 q 737 568 737 666 q 732 511 737 546 q 720 432 728 475 m 444 1110 l 577 856 l 480 856 l 309 1110 l 444 1110 "},"Ãœ":{"x_min":54,"x_max":834.625,"ha":836,"o":"m 77 388 l 198 1012 l 336 1012 l 214 388 q 209 360 213 379 q 189 215 189 255 q 225 122 189 153 q 337 91 262 91 q 439 110 397 91 q 512 171 481 129 q 542 243 527 192 q 576 388 557 295 l 696 1012 l 834 1012 l 713 388 q 653 170 685 239 q 568 57 620 100 q 458 0 519 20 q 324 -20 396 -20 q 124 41 194 -20 q 54 214 54 102 q 59 282 54 239 q 77 388 65 325 m 610 1268 l 748 1268 l 722 1130 l 584 1130 l 610 1268 m 345 1268 l 484 1268 l 456 1130 l 319 1130 l 345 1268 "},"Ã³":{"x_min":79,"x_max":763.140625,"ha":836,"o":"m 471 672 q 286 555 360 672 q 212 260 212 439 q 249 129 212 173 q 363 85 287 85 q 549 201 474 85 q 623 496 623 317 q 585 628 623 584 q 471 672 547 672 m 483 777 q 685 705 616 777 q 755 492 755 632 q 727 306 755 399 q 649 140 699 214 q 519 20 595 60 q 342 -20 442 -20 q 147 54 215 -20 q 79 266 79 128 q 106 449 79 357 q 185 617 134 541 q 314 737 239 696 q 483 777 390 777 m 614 1111 l 763 1111 l 495 856 l 389 856 l 614 1111 "},"âˆš":{"x_min":40.0625,"x_max":803,"ha":836,"o":"m 67 497 l 40 582 l 237 648 l 385 153 l 702 1151 l 803 1151 l 803 1062 l 771 1062 l 427 -26 l 341 -26 l 175 533 l 67 497 "}}}
